<svg width="462" height="406" viewBox="0 0 462 406" fill="none" xmlns="http://www.w3.org/2000/svg">
<path opacity="0.5" fill-rule="evenodd" clip-rule="evenodd" d="M305.812 82.9415H442.559C453.296 82.9415 462.001 92.1385 462.001 103.485C462.001 114.792 453.354 123.967 442.666 124.027H375.115C364.378 124.027 355.673 133.225 355.673 144.571C355.673 155.916 364.378 165.114 375.115 165.114H391.282V165.114H388.552C399.29 165.114 407.994 174.312 407.994 185.657C407.994 197.002 399.29 206.2 388.552 206.2H382.689C382.653 206.2 382.618 206.2 382.582 206.2H299.034C288.296 206.2 279.591 215.398 279.591 226.743C279.591 238.088 288.296 247.286 299.034 247.286H314.786V247.286H332.469C343.207 247.286 351.912 256.484 351.912 267.83C351.912 279.135 343.267 288.309 332.582 288.372H299.034C288.296 288.372 279.591 297.57 279.591 308.916C279.591 320.261 288.296 329.459 299.034 329.459H314.786V329.459H370.531C381.269 329.459 389.974 338.657 389.974 350.002C389.974 361.347 381.269 370.545 370.531 370.545H80.0425C69.3051 370.545 60.6002 361.347 60.6002 350.002C60.6002 338.657 69.3051 329.459 80.0425 329.459H159.866V329.459H170.381C181.119 329.459 189.824 320.261 189.823 308.916C189.823 297.57 181.118 288.372 170.381 288.372H102.906C92.2201 288.309 83.5758 279.135 83.5758 267.83C83.5758 256.484 92.2807 247.286 103.018 247.286H159.866V206.2H86.0996C75.3622 206.2 66.6572 197.002 66.6572 185.657C66.6572 174.312 75.3622 165.114 86.0996 165.114H83.3694V165.114H125.351C136.089 165.114 144.794 155.916 144.794 144.571C144.794 133.225 136.089 124.027 125.351 124.027H41.8032C41.7675 124.027 41.7318 124.028 41.6961 124.028H32.0932C21.3558 124.028 12.6509 114.83 12.6509 103.485C12.6509 92.1393 21.3558 82.9415 32.0932 82.9415H168.839V82.9412H179.24C189.978 82.9412 198.683 73.7434 198.683 62.3981C198.683 51.0528 189.978 41.855 179.24 41.855H123.83C113.142 41.7944 104.494 32.62 104.494 21.3122C104.494 9.96683 113.199 0.769043 123.937 0.769043H350.715C361.452 0.769043 370.157 9.96683 370.157 21.3122C370.157 32.62 361.51 41.7944 350.822 41.855H279.217C268.48 41.855 259.775 51.0528 259.775 62.3981C259.775 73.7434 268.48 82.9412 279.217 82.9412H305.812V82.9415ZM195.553 165.114H279.101C289.838 165.114 298.543 155.916 298.543 144.571C298.543 133.225 289.838 124.027 279.101 124.027H195.553C184.815 124.027 176.11 133.225 176.11 144.571C176.11 155.916 184.815 165.114 195.553 165.114Z" fill="#C3CAD9"/>
<g style="mix-blend-mode:multiply">
<path d="M342.839 85.4495C342.316 84.7862 341.665 84.2329 340.925 83.8218C340.185 83.4106 339.37 83.1498 338.528 83.0545L316.169 80.4504V63.5929C316.167 61.8901 315.486 60.2577 314.277 59.0537C313.067 57.8497 311.427 57.1724 309.717 57.1705H283.554L280.81 48.7963C280.278 47.1782 279.123 45.8361 277.599 45.0642C276.074 44.2923 274.304 44.1536 272.677 44.6786L234.145 57.1705H182.27C180.56 57.1724 178.92 57.8497 177.71 59.0538C176.501 60.2578 175.821 61.8902 175.819 63.5929V76.0785L151.499 83.9568C150.692 84.2177 149.946 84.6343 149.301 85.1828C148.657 85.7312 148.127 86.4007 147.743 87.153C147.359 87.9053 147.127 88.7256 147.062 89.567C146.996 90.4085 147.098 91.2545 147.361 92.0568L175.818 179.044V241.405C175.82 243.107 176.5 244.74 177.71 245.943C178.919 247.147 180.559 247.824 182.269 247.826H184.351L184.034 250.552C183.838 252.243 184.323 253.943 185.383 255.279C186.444 256.615 187.993 257.477 189.692 257.677L202.014 259.112L202.674 261.129C202.935 261.932 203.353 262.676 203.903 263.318C204.453 263.96 205.125 264.487 205.881 264.87C206.637 265.252 207.461 265.483 208.306 265.547C209.151 265.612 210.001 265.51 210.806 265.247L222.407 261.487L316.275 272.418C316.528 272.448 316.783 272.462 317.038 272.462C318.616 272.459 320.139 271.88 321.317 270.835C322.495 269.789 323.248 268.35 323.432 266.79L328.081 227.235L331.986 225.969C332.791 225.707 333.537 225.291 334.181 224.743C334.825 224.195 335.354 223.526 335.738 222.774C336.123 222.022 336.354 221.203 336.42 220.362C336.486 219.521 336.385 218.676 336.122 217.874L331.014 202.256L344.186 90.1828C344.287 89.3444 344.22 88.4943 343.989 87.6817C343.758 86.8692 343.367 86.1105 342.839 85.4495Z" fill="#C3CAD9"/>
</g>
<path d="M309.102 262.714L182.518 247.972C181.305 247.831 180.198 247.216 179.441 246.262C178.684 245.308 178.338 244.094 178.48 242.887L199.236 66.2797C199.378 65.072 199.996 63.9701 200.955 63.2162C201.913 62.4623 203.133 62.1182 204.346 62.2597L330.928 77.0016C331.528 77.0715 332.109 77.2584 332.637 77.5518C333.165 77.8452 333.63 78.2393 334.005 78.7115C334.38 79.1837 334.658 79.7248 334.823 80.304C334.988 80.8831 335.036 81.4889 334.966 82.0868L314.21 258.694C314.068 259.901 313.45 261.003 312.492 261.757C311.534 262.511 310.315 262.855 309.102 262.714Z" fill="white"/>
<path d="M309.638 263.008C309.448 263.008 309.258 262.997 309.069 262.975L182.485 248.234C181.203 248.084 180.033 247.433 179.232 246.425C178.432 245.417 178.066 244.133 178.216 242.856L198.972 66.2494C199.046 65.6172 199.245 65.0058 199.556 64.45C199.868 63.8943 200.287 63.4051 200.788 63.0104C201.29 62.6157 201.865 62.3233 202.48 62.1498C203.095 61.9763 203.739 61.9252 204.374 61.9993L330.956 76.737C332.238 76.8879 333.408 77.5387 334.208 78.5467C335.009 79.5548 335.375 80.8377 335.227 82.1142L314.471 258.725C314.331 259.903 313.761 260.99 312.871 261.779C311.98 262.568 310.83 263.006 309.638 263.008ZM309.131 262.456C310.275 262.588 311.424 262.264 312.327 261.553C313.23 260.843 313.813 259.805 313.947 258.667L334.702 82.0565C334.835 80.9184 334.508 79.7744 333.795 78.8755C333.081 77.9767 332.038 77.3965 330.895 77.2622L204.311 62.5213C203.745 62.4551 203.172 62.5007 202.623 62.6553C202.075 62.8099 201.562 63.0706 201.115 63.4225C200.668 63.7744 200.295 64.2105 200.017 64.706C199.739 65.2015 199.562 65.7467 199.496 66.3103L178.74 242.917C178.674 243.481 178.72 244.052 178.875 244.598C179.031 245.144 179.292 245.654 179.646 246.099C179.999 246.545 180.437 246.916 180.935 247.193C181.433 247.469 181.98 247.646 182.547 247.712L309.131 262.456Z" fill="#1F2A43"/>
<g style="mix-blend-mode:multiply">
<path d="M330.221 85.7604L309.464 262.372C309.451 262.496 309.43 262.618 309.4 262.739C309.295 262.739 309.205 262.724 309.105 262.713L182.521 247.97C181.921 247.901 181.339 247.714 180.811 247.421C180.283 247.128 179.818 246.734 179.442 246.262C179.067 245.789 178.789 245.248 178.624 244.669C178.458 244.09 178.41 243.484 178.48 242.886L199.237 66.2799C199.252 66.1591 199.268 66.0383 199.295 65.9175C199.395 65.9193 199.496 65.9263 199.595 65.9385L326.179 80.6762C327.392 80.8174 328.499 81.4322 329.257 82.3855C330.015 83.3389 330.361 84.5528 330.221 85.7604Z" fill="#C3CAD9"/>
</g>
<path d="M309.64 264.584C309.388 264.584 309.137 264.569 308.887 264.54L182.303 249.798C181.462 249.7 180.648 249.438 179.908 249.027C179.168 248.616 178.517 248.064 177.991 247.402C177.466 246.741 177.076 245.983 176.845 245.171C176.614 244.36 176.546 243.511 176.645 242.674L197.401 66.0664C197.6 64.375 198.465 62.8316 199.807 61.7753C201.149 60.7191 202.857 60.2366 204.556 60.4339L331.142 75.1748C332.841 75.3749 334.391 76.2379 335.452 77.5746C336.513 78.9113 336.997 80.6123 336.799 82.3042L316.043 258.907C315.858 260.469 315.104 261.909 313.924 262.955C312.744 264.001 311.22 264.581 309.64 264.584ZM309.315 260.888C310.042 260.973 310.772 260.767 311.346 260.315C311.92 259.864 312.29 259.204 312.375 258.481L333.131 81.8735C333.216 81.1504 333.008 80.4235 332.555 79.8523C332.101 79.2812 331.439 78.9125 330.712 78.8272L204.134 64.0853C203.408 64.0006 202.677 64.2067 202.103 64.6583C201.529 65.1098 201.159 65.7697 201.074 66.4929L180.314 243.1C180.272 243.458 180.301 243.821 180.399 244.168C180.498 244.515 180.665 244.839 180.889 245.122C181.114 245.405 181.392 245.641 181.708 245.817C182.025 245.992 182.373 246.104 182.733 246.146L309.316 260.888H309.315Z" fill="#1F2A43"/>
<path d="M324.03 216.341L314.997 219.272L230.681 246.604L202.844 255.628C201.682 256.003 200.419 255.904 199.33 255.352C198.242 254.801 197.418 253.842 197.04 252.686L195.051 246.604L178.341 195.521L141.728 83.6067C141.351 82.4505 141.451 81.1926 142.005 80.1094C142.559 79.0261 143.522 78.206 144.683 77.8292L178.346 66.9204L200.862 59.6198L265.866 38.5478C267.027 38.172 268.291 38.2707 269.38 38.8223C270.468 39.3738 271.292 40.3331 271.67 41.4891L277.6 59.6198L314.993 173.929L326.979 210.563C327.167 211.136 327.24 211.739 327.193 212.339C327.147 212.939 326.982 213.524 326.708 214.061C326.434 214.598 326.056 215.075 325.597 215.467C325.137 215.858 324.605 216.155 324.03 216.341Z" fill="white"/>
<path d="M201.417 256.113C200.39 256.11 199.39 255.785 198.559 255.183C197.728 254.582 197.109 253.735 196.789 252.763L141.478 83.689C141.079 82.4662 141.184 81.1358 141.77 79.9899C142.355 78.844 143.374 77.9764 144.602 77.5775L265.787 38.2961C267.015 37.9013 268.351 38.0069 269.501 38.5896C270.651 39.1723 271.522 40.1848 271.924 41.4054L327.23 210.475C327.429 211.079 327.506 211.717 327.457 212.352C327.408 212.987 327.233 213.605 326.944 214.173C326.654 214.74 326.255 215.245 325.769 215.659C325.283 216.072 324.72 216.386 324.112 216.583L202.926 255.87C202.439 256.029 201.929 256.111 201.417 256.113ZM267.288 38.5871C266.834 38.587 266.383 38.6579 265.951 38.7972L144.765 78.0796C143.671 78.4355 142.764 79.2087 142.241 80.2297C141.719 81.2507 141.625 82.4361 141.979 83.5262L197.291 252.601C197.647 253.69 198.424 254.594 199.45 255.114C200.476 255.634 201.667 255.727 202.762 255.374L323.948 216.087C324.49 215.912 324.992 215.631 325.426 215.263C325.859 214.894 326.215 214.444 326.473 213.938C326.731 213.432 326.887 212.88 326.931 212.314C326.975 211.749 326.906 211.18 326.729 210.64L271.423 41.5703C271.137 40.7032 270.583 39.9481 269.84 39.4124C269.098 38.8768 268.205 38.5879 267.288 38.5871Z" fill="#1F2A43"/>
<g style="mix-blend-mode:multiply">
<path d="M315.415 173.93V219.267L231.1 246.599H200.666L200.323 245.549L183.613 194.471L178.759 179.633V64.2053C178.759 62.9893 179.245 61.8232 180.109 60.9634C180.972 60.1036 182.144 59.6204 183.365 59.6201H278.022L315.415 173.93Z" fill="#C3CAD9"/>
</g>
<path d="M201.413 257.688C200.052 257.685 198.728 257.254 197.628 256.458C196.527 255.661 195.708 254.539 195.286 253.252L139.975 84.1784C139.447 82.5588 139.586 80.7969 140.362 79.2793C141.137 77.7616 142.485 76.612 144.111 76.0826L265.294 36.796C266.921 36.2708 268.691 36.4094 270.215 37.1813C271.74 37.9532 272.894 39.2955 273.426 40.9137L328.736 209.987C328.998 210.789 329.1 211.634 329.034 212.475C328.968 213.316 328.736 214.136 328.352 214.887C327.968 215.639 327.439 216.308 326.795 216.856C326.151 217.404 325.405 217.821 324.599 218.082L203.417 257.368C202.77 257.58 202.094 257.687 201.413 257.688ZM267.29 40.1616C267.001 40.1617 266.714 40.207 266.439 40.2961L145.256 79.5785C144.56 79.8049 143.983 80.2973 143.651 80.9473C143.319 81.5973 143.261 82.3518 143.488 83.045L198.798 252.113C198.91 252.456 199.089 252.773 199.324 253.047C199.559 253.321 199.847 253.546 200.17 253.71C200.492 253.873 200.844 253.972 201.205 254C201.567 254.028 201.93 253.984 202.274 253.873L323.457 214.586C323.801 214.474 324.12 214.296 324.395 214.062C324.67 213.828 324.897 213.542 325.061 213.22C325.225 212.899 325.324 212.549 325.352 212.189C325.38 211.83 325.336 211.468 325.224 211.126L269.915 42.0566C269.734 41.5058 269.383 41.0259 268.911 40.6856C268.44 40.3453 267.873 40.1619 267.29 40.1616Z" fill="#1F2A43"/>
<path d="M302.33 51.1304H174.884C172.34 51.1304 170.279 53.1828 170.279 55.7145V233.525C170.279 236.057 172.34 238.11 174.884 238.11H302.33C304.873 238.11 306.935 236.057 306.935 233.525V55.7145C306.935 53.1828 304.873 51.1304 302.33 51.1304Z" fill="white"/>
<path d="M302.33 238.372H174.883C173.592 238.371 172.355 237.86 171.442 236.951C170.53 236.043 170.016 234.811 170.015 233.526V55.7144C170.016 54.4296 170.53 53.1978 171.442 52.2892C172.355 51.3806 173.592 50.8693 174.883 50.8677H302.33C303.621 50.8691 304.858 51.3801 305.771 52.2888C306.684 53.1974 307.197 54.4294 307.199 55.7144V233.526C307.197 234.811 306.683 236.043 305.771 236.951C304.858 237.86 303.62 238.371 302.33 238.372ZM174.883 51.3929C173.732 51.3943 172.629 51.8501 171.815 52.6602C171.001 53.4704 170.544 54.5688 170.543 55.7144V233.526C170.544 234.672 171.002 235.77 171.815 236.58C172.629 237.39 173.732 237.846 174.883 237.847H302.33C303.481 237.846 304.584 237.39 305.398 236.58C306.212 235.77 306.67 234.672 306.671 233.526V55.7144C306.67 54.5687 306.212 53.4703 305.398 52.6602C304.584 51.85 303.481 51.3943 302.33 51.3929H174.883Z" fill="#1F2A43"/>
<path d="M302.331 239.948H174.884C173.174 239.946 171.534 239.269 170.325 238.065C169.115 236.861 168.435 235.229 168.433 233.526V55.7144C168.435 54.0118 169.115 52.3793 170.324 51.1753C171.534 49.9712 173.173 49.2939 174.884 49.292H302.331C304.041 49.2939 305.681 49.9712 306.89 51.1752C308.1 52.3792 308.78 54.0117 308.782 55.7144V233.526C308.78 235.229 308.1 236.861 306.89 238.065C305.681 239.269 304.041 239.946 302.331 239.948ZM174.884 52.9685C174.153 52.9697 173.452 53.2593 172.935 53.7741C172.418 54.2888 172.127 54.9866 172.126 55.7144V233.526C172.127 234.254 172.418 234.952 172.935 235.466C173.452 235.981 174.153 236.27 174.884 236.271H302.331C303.062 236.27 303.763 235.981 304.28 235.466C304.797 234.952 305.088 234.254 305.089 233.526V55.7144C305.088 54.9864 304.797 54.2885 304.28 53.7737C303.763 53.2589 303.062 52.9694 302.331 52.9685H174.884Z" fill="#1F2A43"/>
<path d="M248.058 101.219C253.278 96.023 253.278 87.5981 248.058 82.4018C242.838 77.2055 234.375 77.2055 229.154 82.4018C223.934 87.5981 223.934 96.023 229.154 101.219C234.375 106.416 242.838 106.416 248.058 101.219Z" fill="#C3CAD9"/>
<path d="M260.61 129.102H216.606C214.349 129.102 212.741 126.96 213.334 124.795C215.842 115.6 226.208 108.71 238.61 108.71C251.011 108.71 261.377 115.6 263.884 124.795C264.474 126.96 262.867 129.102 260.61 129.102Z" fill="#C3CAD9"/>
<path d="M274.985 144.196H268.33C267.841 144.196 267.371 144.002 267.025 143.658C266.678 143.313 266.484 142.845 266.484 142.358C266.484 141.87 266.678 141.403 267.025 141.058C267.371 140.713 267.841 140.52 268.33 140.52H274.985C275.475 140.52 275.944 140.713 276.291 141.058C276.637 141.403 276.832 141.87 276.832 142.358C276.832 142.845 276.637 143.313 276.291 143.658C275.944 144.002 275.475 144.196 274.985 144.196Z" fill="#C3CAD9"/>
<path d="M260.714 144.196H231.752C231.263 144.196 230.793 144.002 230.447 143.658C230.1 143.313 229.906 142.845 229.906 142.358C229.906 141.87 230.1 141.403 230.447 141.058C230.793 140.713 231.263 140.52 231.752 140.52H260.714C261.204 140.52 261.673 140.713 262.02 141.058C262.366 141.403 262.561 141.87 262.561 142.358C262.561 142.845 262.366 143.313 262.02 143.658C261.673 144.002 261.204 144.196 260.714 144.196Z" fill="#C3CAD9"/>
<path d="M254.201 153.788H225.239C224.749 153.788 224.279 153.594 223.933 153.249C223.587 152.905 223.392 152.437 223.392 151.95C223.392 151.462 223.587 150.994 223.933 150.65C224.279 150.305 224.749 150.111 225.239 150.111H254.2C254.69 150.111 255.16 150.305 255.506 150.65C255.852 150.994 256.047 151.462 256.047 151.95C256.047 152.437 255.852 152.905 255.506 153.249C255.16 153.594 254.69 153.788 254.2 153.788H254.201Z" fill="#C3CAD9"/>
<path d="M239.207 176.766H210.246C209.757 176.766 209.287 176.573 208.941 176.228C208.594 175.883 208.4 175.416 208.4 174.928C208.4 174.441 208.594 173.973 208.941 173.628C209.287 173.284 209.757 173.09 210.246 173.09H239.207C239.697 173.09 240.166 173.284 240.513 173.628C240.859 173.973 241.054 174.441 241.054 174.928C241.054 175.416 240.859 175.883 240.513 176.228C240.166 176.573 239.697 176.766 239.207 176.766Z" fill="#C3CAD9"/>
<path d="M225.943 169.938H210.246C209.757 169.938 209.287 169.745 208.941 169.4C208.594 169.055 208.4 168.588 208.4 168.1C208.4 167.612 208.594 167.145 208.941 166.8C209.287 166.455 209.757 166.262 210.246 166.262H225.943C226.433 166.262 226.903 166.455 227.249 166.8C227.596 167.145 227.79 167.612 227.79 168.1C227.79 168.588 227.596 169.055 227.249 169.4C226.903 169.745 226.433 169.938 225.943 169.938Z" fill="#C3CAD9"/>
<path d="M227.922 193.398H210.246C209.757 193.398 209.287 193.205 208.941 192.86C208.594 192.515 208.4 192.048 208.4 191.56C208.4 191.072 208.594 190.605 208.941 190.26C209.287 189.915 209.757 189.722 210.246 189.722H227.922C228.412 189.722 228.882 189.915 229.228 190.26C229.574 190.605 229.769 191.072 229.769 191.56C229.769 192.048 229.574 192.515 229.228 192.86C228.882 193.205 228.412 193.398 227.922 193.398Z" fill="#C3CAD9"/>
<path d="M252.853 199.744H210.246C209.757 199.744 209.287 199.55 208.941 199.206C208.594 198.861 208.4 198.393 208.4 197.906C208.4 197.418 208.594 196.951 208.941 196.606C209.287 196.261 209.757 196.067 210.246 196.067H252.853C253.342 196.067 253.812 196.261 254.158 196.606C254.505 196.951 254.699 197.418 254.699 197.906C254.699 198.393 254.505 198.861 254.158 199.206C253.812 199.55 253.342 199.744 252.853 199.744Z" fill="#C3CAD9"/>
<path d="M239.207 221.803H210.246C209.757 221.803 209.287 221.609 208.941 221.265C208.594 220.92 208.4 220.452 208.4 219.965C208.4 219.477 208.594 219.01 208.941 218.665C209.287 218.32 209.757 218.126 210.246 218.126H239.207C239.697 218.126 240.166 218.32 240.513 218.665C240.859 219.01 241.054 219.477 241.054 219.965C241.054 220.452 240.859 220.92 240.513 221.265C240.166 221.609 239.697 221.803 239.207 221.803Z" fill="#C3CAD9"/>
<path d="M222.514 144.196H197.979C197.489 144.196 197.019 144.002 196.673 143.658C196.327 143.313 196.132 142.845 196.132 142.358C196.132 141.87 196.327 141.403 196.673 141.058C197.019 140.713 197.489 140.52 197.979 140.52H222.514C223.003 140.52 223.473 140.713 223.819 141.058C224.166 141.403 224.36 141.87 224.36 142.358C224.36 142.845 224.166 143.313 223.819 143.658C223.473 144.002 223.003 144.196 222.514 144.196Z" fill="#C3CAD9"/>
<path d="M193.041 162.487H184.126C182.792 162.487 181.71 163.563 181.71 164.891V173.765C181.71 175.093 182.792 176.17 184.126 176.17H193.041C194.375 176.17 195.456 175.093 195.456 173.765V164.891C195.456 163.563 194.375 162.487 193.041 162.487Z" fill="#C3CAD9"/>
<path d="M193.041 185.247H184.126C182.792 185.247 181.71 186.323 181.71 187.651V196.525C181.71 197.853 182.792 198.93 184.126 198.93H193.041C194.375 198.93 195.456 197.853 195.456 196.525V187.651C195.456 186.323 194.375 185.247 193.041 185.247Z" fill="#C3CAD9"/>
<path d="M193.041 208.005H184.126C182.792 208.005 181.71 209.082 181.71 210.41V219.284C181.71 220.612 182.792 221.688 184.126 221.688H193.041C194.375 221.688 195.456 220.612 195.456 219.284V210.41C195.456 209.082 194.375 208.005 193.041 208.005Z" fill="#C3CAD9"/>
<g style="mix-blend-mode:multiply">
<path d="M302.54 103.051V229.288C302.538 230.437 302.079 231.538 301.263 232.351C300.447 233.163 299.341 233.62 298.187 233.621H170.279V233.527C241.941 230.953 286.914 187.149 302.54 103.051Z" fill="#C3CAD9"/>
</g>
<g style="mix-blend-mode:multiply">
<path d="M347.025 81.4313L340.921 99.8614C340.8 100.229 340.565 100.549 340.251 100.777C339.936 101.004 339.558 101.127 339.169 101.127C338.972 101.126 338.776 101.094 338.589 101.033C338.124 100.879 337.74 100.549 337.519 100.114C337.299 99.6785 337.26 99.1743 337.412 98.7111L338.061 96.7573C337.111 96.2766 336.365 95.4731 335.959 94.4922C335.552 93.5114 335.512 92.418 335.846 91.4103C336.179 90.4027 336.865 89.5472 337.777 88.999C338.69 88.4509 339.769 88.2461 340.821 88.422L343.517 80.2811C343.771 79.51 343.708 78.6701 343.341 77.9455C342.974 77.2208 342.333 76.6706 341.559 76.4154L339.19 75.6381L313.547 152.814C313.217 153.807 311.541 156.972 308.354 159.275L291.605 169.616L310.192 91.7467L320 62.2292C320.486 60.7585 321.536 59.6293 323.018 58.9203L324.939 53.1218C325.321 51.9665 325.928 50.8974 326.725 49.9757C327.522 49.0539 328.494 48.2974 329.585 47.7495C330.676 47.2015 331.864 46.8728 333.083 46.7821C334.301 46.6914 335.526 46.8405 336.687 47.2209C337.847 47.6013 338.921 48.2055 339.847 48.9991C340.773 49.7926 341.533 50.76 342.084 51.8459C342.634 52.9318 342.964 54.115 343.055 55.3279C343.146 56.5408 342.997 57.7597 342.614 58.915L340.747 64.5549C341.306 65.5265 341.591 66.5349 341.591 67.5434C341.59 68.1146 341.498 68.6821 341.316 69.2241L340.351 72.1506L342.715 72.9227C344.42 73.4823 345.831 74.693 346.64 76.2885C347.448 77.8841 347.587 79.734 347.025 81.4313Z" fill="#C3CAD9"/>
</g>
<path d="M334.948 99.5495C334.655 99.5496 334.367 99.4806 334.107 99.3482C333.846 99.2158 333.621 99.0237 333.45 98.7879C333.279 98.552 333.166 98.279 333.122 97.9914C333.077 97.7038 333.102 97.4097 333.194 97.1334L339.296 78.7055C339.551 77.9343 339.488 77.0939 339.121 76.369C338.754 75.6441 338.112 75.0941 337.338 74.8398L331.312 72.8629C330.853 72.7058 330.474 72.3749 330.258 71.9418C330.042 71.5088 330.006 71.0085 330.158 70.5493C330.31 70.0901 330.638 69.7089 331.07 69.4884C331.502 69.2679 332.005 69.2258 332.468 69.3712L338.494 71.3482C340.199 71.9077 341.611 73.1185 342.419 74.7141C343.227 76.3097 343.366 78.1596 342.804 79.8568L336.702 98.2858C336.581 98.6534 336.346 98.9735 336.031 99.2004C335.715 99.4273 335.336 99.5495 334.948 99.5495Z" fill="#1F2A43"/>
<path d="M334.306 63.8195L320.14 59.1692L322.474 52.1186C322.781 51.1927 323.268 50.336 323.907 49.5973C324.546 48.8586 325.325 48.2525 326.199 47.8136C327.074 47.3747 328.027 47.1115 329.003 47.0391C329.98 46.9667 330.961 47.0864 331.891 47.3916C332.822 47.6967 333.682 48.1812 334.424 48.8175C335.166 49.4537 335.775 50.2292 336.216 51.0997C336.657 51.9701 336.922 52.9186 336.994 53.8907C337.067 54.8629 336.947 55.8399 336.64 56.7658L334.306 63.8195Z" fill="#FF0083"/>
<path d="M334.306 65.6545C334.11 65.6544 333.914 65.6235 333.728 65.5631L319.563 60.9149C319.333 60.8394 319.119 60.7195 318.936 60.5619C318.752 60.4044 318.601 60.2123 318.492 59.9967C318.383 59.7811 318.317 59.5462 318.299 59.3054C318.281 59.0646 318.311 58.8227 318.387 58.5934L320.724 51.5428C321.106 50.3877 321.713 49.3188 322.511 48.3973C323.308 47.4758 324.28 46.7196 325.371 46.172C326.462 45.6244 327.651 45.2961 328.87 45.2057C330.088 45.1154 331.312 45.2649 332.473 45.6456C333.633 46.0264 334.707 46.6309 335.633 47.4247C336.559 48.2185 337.318 49.1861 337.868 50.2721C338.419 51.3582 338.748 52.5414 338.839 53.7544C338.93 54.9673 338.78 56.1861 338.397 57.3413L336.063 64.3919C335.941 64.7591 335.706 65.0786 335.391 65.3049C335.076 65.5313 334.698 65.6529 334.309 65.6524L334.306 65.6545ZM322.472 57.9989L333.13 61.4958L334.886 56.19C335.117 55.4934 335.207 54.7584 335.153 54.0269C335.098 53.2955 334.899 52.5819 334.567 51.927C334.235 51.2721 333.777 50.6887 333.219 50.21C332.661 49.7314 332.013 49.3669 331.313 49.1373C330.613 48.9078 329.875 48.8177 329.14 48.8722C328.405 48.9267 327.689 49.1248 327.031 49.4551C325.702 50.1221 324.694 51.2872 324.228 52.6941L322.472 57.9989Z" fill="#1F2A43"/>
<path d="M307.051 151.707V151.713C306.863 151.985 306.644 152.234 306.397 152.455L293.207 164.115L289.649 146.918C289.569 146.551 289.541 146.174 289.566 145.798C289.567 145.788 289.57 145.778 289.573 145.769C289.585 145.6 289.609 145.432 289.643 145.266C289.675 145.1 289.718 144.937 289.772 144.777L317.525 61.2229C319.702 54.645 337.531 60.4875 335.343 67.0738L307.572 150.66C307.527 150.802 307.473 150.93 307.415 151.065L307.407 151.094C307.307 151.309 307.188 151.514 307.051 151.707Z" fill="#7B89A7"/>
<path d="M307.051 151.707V151.713C306.863 151.985 306.644 152.234 306.397 152.455L293.207 164.115L289.649 146.918C289.569 146.551 289.541 146.174 289.566 145.798C289.567 145.788 289.57 145.778 289.573 145.769C291.209 141.001 308.663 146.935 307.051 151.707Z" fill="#4A5978"/>
<g opacity="0.3">
<path d="M335.346 67.0759L307.573 150.661C307.527 150.797 307.473 150.931 307.413 151.062L307.405 151.093C307.167 151.61 306.823 152.073 306.394 152.451L293.204 164.121L293.934 161.084L302.607 148.226C303.041 147.839 302.201 148.311 302.438 147.795L302.446 147.766C302.506 147.635 302.56 147.5 302.606 147.364L330.374 63.7785C330.858 62.3247 330.367 60.9087 329.282 59.6587C333.203 61.2512 336.342 64.0842 335.346 67.0759Z" fill="#1F2A43"/>
</g>
<path d="M325.789 58.6262C324.447 59.0516 323.43 59.8615 323.012 61.1399L295.251 144.685C295.021 145.375 294.979 146.113 295.127 146.825L295.186 161.623L293.199 164.121L289.647 146.918C289.492 146.207 289.535 145.467 289.771 144.778L317.529 61.226C318.433 58.4938 322.041 57.9014 325.789 58.6262Z" fill="white"/>
<path d="M293.204 165.961C292.778 165.961 292.366 165.814 292.036 165.546C291.707 165.278 291.481 164.905 291.396 164.49L287.837 147.29C287.619 146.264 287.679 145.2 288.011 144.205L315.777 60.6514C316.445 58.6346 318.171 57.2417 320.638 56.7301C325.367 55.7532 332.323 58.0358 335.535 61.6136C337.214 63.4845 337.77 65.6274 337.102 67.6453L309.327 151.237C308.997 152.231 308.411 153.122 307.628 153.821L294.431 165.496C294.093 165.796 293.656 165.961 293.204 165.961ZM323.015 60.1808C322.47 60.1768 321.926 60.2278 321.392 60.3331C319.653 60.6934 319.375 61.5317 319.281 61.8038L291.522 145.357C291.394 145.737 291.37 146.143 291.451 146.535L294.368 160.634L305.17 151.075C305.472 150.807 305.696 150.464 305.821 150.081L333.598 66.4972C333.689 66.2219 333.966 65.3837 332.783 64.0654C330.793 61.851 326.389 60.1777 323.015 60.1777V60.1808Z" fill="#1F2A43"/>
<path d="M331.426 80.303C331.146 80.3033 330.869 80.2374 330.619 80.1105C330.369 79.9837 330.152 79.7997 329.988 79.5736C329.823 79.3474 329.714 79.0856 329.671 78.8096C329.627 78.5336 329.65 78.2512 329.738 77.9858C329.834 77.6979 329.475 77.0183 328.461 76.2074C327.229 75.221 325.318 74.2609 323.219 73.5728C318.562 72.0444 315.572 72.5676 315.342 73.264C315.269 73.484 315.153 73.6876 315.001 73.8631C314.849 74.0386 314.664 74.1826 314.456 74.2869C314.249 74.3912 314.022 74.4537 313.79 74.4708C313.558 74.488 313.325 74.4595 313.104 74.3869C312.883 74.3144 312.678 74.1992 312.502 74.048C312.326 73.8967 312.181 73.7124 312.076 73.5055C311.865 73.0877 311.828 72.6033 311.976 72.1589C312.337 71.0675 313.508 69.2177 317.289 69.0633C319.305 68.9845 321.805 69.3942 324.328 70.2188C326.852 71.0434 329.109 72.1957 330.681 73.4541C333.636 75.8134 333.466 77.9963 333.108 79.0877C332.992 79.4407 332.767 79.7483 332.465 79.9665C332.163 80.1847 331.799 80.3025 331.426 80.303Z" fill="#1F2A43"/>
<path d="M334.468 95.4503L334.777 95.5553L337.574 87.1087L337.265 87.0037C336.707 86.821 336.119 86.7495 335.534 86.7932C334.949 86.8369 334.378 86.995 333.854 87.2584C333.33 87.5217 332.863 87.8853 332.481 88.3282C332.098 88.7712 331.807 89.2848 331.623 89.8399C331.254 90.9594 331.346 92.1792 331.88 93.2311C332.413 94.2831 333.344 95.0813 334.468 95.4503Z" fill="#1F2A43"/>
<path d="M307.046 153.476C306.764 153.476 306.486 153.409 306.236 153.281C305.985 153.152 305.768 152.966 305.604 152.738C305.44 152.509 305.334 152.245 305.293 151.968C305.252 151.69 305.278 151.406 305.37 151.141C305.43 150.965 305.243 150.593 304.893 150.195C302.657 147.647 295.544 145.228 292.209 145.881C291.687 145.986 291.31 146.164 291.25 146.339C291.175 146.558 291.057 146.761 290.903 146.934C290.75 147.108 290.563 147.25 290.354 147.352C290.145 147.454 289.918 147.514 289.686 147.529C289.454 147.544 289.221 147.513 289.001 147.438C288.78 147.363 288.577 147.246 288.402 147.093C288.228 146.939 288.085 146.754 287.983 146.546C287.88 146.338 287.82 146.112 287.805 145.881C287.79 145.649 287.821 145.418 287.897 145.198C288.244 144.187 289.155 142.887 291.525 142.42C296.1 141.525 304.494 144.378 307.565 147.875C309.153 149.686 309.073 151.271 308.725 152.287C308.605 152.634 308.378 152.936 308.077 153.149C307.776 153.362 307.416 153.476 307.046 153.476Z" fill="#1F2A43"/>
<path d="M291.729 170.817C291.437 170.816 291.149 170.747 290.889 170.615C290.629 170.482 290.404 170.29 290.232 170.055C290.061 169.819 289.949 169.546 289.904 169.258C289.859 168.971 289.884 168.677 289.975 168.401L291.823 162.844C291.977 162.381 292.31 161.998 292.747 161.779C293.185 161.56 293.692 161.523 294.157 161.676C294.622 161.829 295.007 162.16 295.227 162.596C295.447 163.032 295.484 163.536 295.33 163.999L293.482 169.556C293.36 169.923 293.125 170.242 292.81 170.468C292.496 170.695 292.118 170.817 291.729 170.817Z" fill="#1F2A43"/>
<g opacity="0.3">
<path d="M439.302 197.05C447.303 177.802 433.949 154.026 409.475 143.945C385.001 133.864 358.675 141.294 350.673 160.542C342.672 179.79 356.026 203.566 380.5 213.647C404.974 223.729 431.3 216.298 439.302 197.05Z" fill="#1F2A43"/>
</g>
<path d="M401.696 184.644L412.442 196.653C413 197.276 413.43 198.003 413.705 198.791C413.981 199.58 414.098 200.415 414.05 201.248C414.002 202.082 413.789 202.897 413.424 203.649C413.059 204.401 412.549 205.073 411.922 205.629C411.296 206.184 410.566 206.611 409.774 206.886C408.982 207.16 408.143 207.277 407.306 207.229C406.469 207.181 405.649 206.969 404.894 206.606C404.139 206.242 403.463 205.734 402.905 205.111L392.158 193.103C395.826 190.881 399.057 188.015 401.696 184.644Z" fill="white"/>
<path d="M407.684 207.503C406.745 207.504 405.815 207.307 404.957 206.925C404.099 206.543 403.333 205.984 402.708 205.285L391.75 193.041L392.021 192.878C395.661 190.674 398.868 187.829 401.487 184.483L401.681 184.234L412.64 196.477C413.496 197.43 414.056 198.609 414.254 199.871C414.451 201.134 414.277 202.427 413.753 203.593C413.228 204.759 412.376 205.75 411.298 206.444C410.22 207.139 408.964 207.508 407.68 207.507L407.684 207.503ZM392.565 193.163L403.107 204.941C403.642 205.538 404.289 206.025 405.013 206.374C405.737 206.722 406.523 206.925 407.326 206.971C408.128 207.017 408.932 206.905 409.691 206.642C410.451 206.379 411.151 205.969 411.751 205.437C412.351 204.905 412.84 204.26 413.19 203.539C413.54 202.819 413.744 202.037 413.79 201.238C413.837 200.438 413.724 199.638 413.46 198.882C413.196 198.127 412.784 197.43 412.249 196.832L401.713 185.059C399.156 188.266 396.063 191.009 392.569 193.168L392.565 193.163Z" fill="#1F2A43"/>
<g opacity="0.3">
<path d="M401.696 184.644L408.489 192.237C406.241 193.166 404.365 194.807 403.15 196.905C401.935 199.004 401.45 201.443 401.77 203.844L392.156 193.103C395.824 190.881 399.055 188.015 401.694 184.644H401.696Z" fill="#262F6A"/>
<path d="M402.145 204.657L391.75 193.041L392.021 192.878C395.661 190.674 398.868 187.829 401.487 184.483L401.681 184.234L408.935 192.335L408.591 192.476C406.397 193.383 404.566 194.984 403.38 197.033C402.194 199.082 401.721 201.463 402.034 203.806L402.145 204.657ZM392.565 193.163L401.429 203.07C401.293 200.796 401.853 198.534 403.034 196.583C404.216 194.631 405.964 193.082 408.047 192.14L401.705 185.054C399.149 188.26 396.055 191.004 392.562 193.163H392.565Z" fill="#1F2A43"/>
</g>
<path d="M407.684 209.077C406.521 209.079 405.37 208.836 404.309 208.363C403.247 207.89 402.297 207.198 401.524 206.334L390.779 194.331C390.599 194.13 390.466 193.891 390.388 193.633C390.311 193.374 390.292 193.102 390.332 192.835C390.373 192.568 390.471 192.314 390.621 192.089C390.772 191.865 390.97 191.676 391.201 191.536C394.676 189.432 397.738 186.717 400.237 183.522C400.404 183.309 400.615 183.135 400.856 183.012C401.097 182.89 401.363 182.821 401.634 182.812C401.904 182.803 402.174 182.853 402.423 182.959C402.672 183.066 402.895 183.225 403.075 183.426L413.823 195.434C414.88 196.613 415.572 198.072 415.815 199.634C416.058 201.196 415.843 202.794 415.194 204.237C414.545 205.679 413.491 206.904 412.159 207.764C410.827 208.624 409.273 209.082 407.685 209.083L407.684 209.077ZM394.967 193.478L404.284 203.888C404.681 204.331 405.161 204.692 405.698 204.95C406.235 205.209 406.817 205.359 407.413 205.393C408.008 205.427 408.604 205.345 409.167 205.149C409.73 204.954 410.249 204.651 410.694 204.256C411.139 203.861 411.502 203.383 411.761 202.848C412.021 202.314 412.172 201.734 412.206 201.142C412.24 200.549 412.157 199.956 411.961 199.395C411.765 198.835 411.46 198.318 411.063 197.875L401.747 187.465C399.741 189.736 397.464 191.755 394.967 193.478Z" fill="#1F2A43"/>
<path d="M413.039 159.475C415.677 176.631 405.458 192.798 389.539 198.253C385.482 199.65 381.204 200.303 376.913 200.179C360.086 199.733 345.456 187.364 342.812 170.193C339.841 150.898 353.154 132.84 372.542 129.881C391.93 126.922 410.071 140.18 413.039 159.475Z" fill="white"/>
<path d="M377.964 200.458C377.612 200.458 377.261 200.453 376.909 200.442C359.63 199.982 345.173 187.277 342.552 170.233C341.113 160.894 343.461 151.369 349.077 143.753C354.694 136.136 363.12 131.053 372.502 129.622C381.884 128.19 391.453 130.526 399.104 136.118C406.755 141.709 411.861 150.096 413.299 159.435C415.923 176.471 405.966 192.9 389.625 198.5C385.874 199.792 381.933 200.454 377.964 200.458ZM377.999 129.729C376.185 129.729 374.375 129.867 372.582 130.142C363.34 131.554 355.04 136.563 349.506 144.066C343.973 151.569 341.659 160.952 343.073 170.153C345.659 186.946 359.895 199.46 376.92 199.916C381.179 200.041 385.426 199.394 389.453 198.008C405.554 192.49 415.362 176.303 412.774 159.518C411.497 151.241 407.291 143.691 400.915 138.228C394.539 132.766 386.411 129.752 377.999 129.729Z" fill="#1F2A43"/>
<g opacity="0.3">
<path d="M413.039 159.475C415.677 176.631 405.458 192.798 389.539 198.253C385.482 199.65 381.204 200.303 376.913 200.179C363.989 199.836 352.373 192.458 346.48 181.287C349.686 184.727 353.55 187.497 357.844 189.434C362.138 191.37 366.777 192.435 371.49 192.565C375.781 192.689 380.059 192.037 384.116 190.639C400.035 185.184 410.258 169.018 407.616 151.863C407.026 147.999 405.795 144.259 403.973 140.796C408.811 145.975 411.971 152.484 413.039 159.475Z" fill="#262F6A"/>
<path d="M377.964 200.458C377.609 200.458 377.257 200.453 376.909 200.442C370.561 200.266 364.374 198.41 358.985 195.066C353.596 191.721 349.199 187.008 346.247 181.411L345.329 179.671L346.675 181.11C353.092 187.98 362.141 192.061 371.503 192.305C375.762 192.428 380.008 191.78 384.035 190.393C400.136 184.875 409.946 168.689 407.356 151.905C406.772 148.068 405.55 144.355 403.74 140.918L402.821 139.174L404.167 140.618C409.041 145.834 412.222 152.392 413.295 159.435C415.919 176.471 405.962 192.9 389.62 198.5C385.87 199.792 381.929 200.454 377.96 200.458H377.964ZM347.678 182.871C350.719 187.931 354.994 192.145 360.105 195.125C365.217 198.104 371.001 199.752 376.922 199.916C381.181 200.04 385.426 199.394 389.453 198.008C405.554 192.49 415.362 176.303 412.774 159.518C411.817 153.237 409.156 147.336 405.079 142.449C406.441 145.431 407.383 148.587 407.877 151.826C410.502 168.862 400.546 185.29 384.204 190.89C380.117 192.298 375.807 192.956 371.484 192.831C362.644 192.598 354.073 188.993 347.676 182.871H347.678Z" fill="#1F2A43"/>
</g>
<path d="M377.929 191.759C392.865 191.759 404.973 179.706 404.973 164.838C404.973 149.97 392.865 137.917 377.929 137.917C362.993 137.917 350.885 149.97 350.885 164.838C350.885 179.706 362.993 191.759 377.929 191.759Z" fill="#7B89A7"/>
<g opacity="0.3">
<path d="M400.506 150.026C395.513 147.52 389.857 146.634 384.331 147.49C369.576 149.742 359.436 163.477 361.699 178.177C362.285 182.024 363.71 185.697 365.876 188.936C361.995 187.015 358.636 184.192 356.081 180.707C353.525 177.222 351.85 173.176 351.195 168.911C348.933 154.222 359.071 140.475 373.827 138.224C378.943 137.44 384.177 138.136 388.906 140.228C393.636 142.321 397.662 145.721 400.506 150.026Z" fill="#1F2A43"/>
</g>
<path d="M377.964 202.034C377.594 202.034 377.225 202.028 376.856 202.016C358.816 201.537 343.728 188.27 340.987 170.472C339.485 160.719 341.936 150.773 347.802 142.82C353.667 134.867 362.466 129.559 372.263 128.064C382.059 126.569 392.051 129.009 400.041 134.848C408.03 140.686 413.362 149.445 414.864 159.197C417.608 176.986 407.206 194.142 390.14 199.991C386.223 201.34 382.108 202.03 377.964 202.034ZM377.992 131.305C376.26 131.305 374.532 131.437 372.821 131.7C363.994 133.05 356.067 137.833 350.782 144.999C345.497 152.165 343.286 161.127 344.637 169.915C347.107 185.954 360.701 197.91 376.962 198.342C381.029 198.46 385.085 197.841 388.93 196.516C404.313 191.245 413.681 175.786 411.212 159.751C409.991 151.845 405.972 144.634 399.881 139.418C393.79 134.203 386.026 131.325 377.992 131.305Z" fill="#1F2A43"/>
<path d="M377.868 193.603C372.533 193.591 367.305 192.108 362.764 189.32C358.223 186.532 354.547 182.546 352.142 177.805C349.736 173.065 348.697 167.754 349.138 162.461C349.579 157.168 351.484 152.1 354.641 147.819C356.878 144.767 359.702 142.187 362.948 140.229C366.194 138.27 369.798 136.972 373.551 136.41C389.299 134.009 404.073 144.805 406.487 160.48C407.062 164.213 406.893 168.022 405.989 171.69C405.085 175.358 403.464 178.813 401.219 181.857C398.973 184.902 396.148 187.476 392.903 189.434C389.658 191.391 386.058 192.693 382.308 193.265C380.838 193.49 379.354 193.603 377.868 193.603ZM377.944 139.752C376.661 139.753 375.38 139.85 374.111 140.044C369.185 140.796 364.594 142.985 360.918 146.335C357.241 149.685 354.646 154.044 353.458 158.862C352.271 163.681 352.546 168.741 354.248 173.404C355.951 178.066 359.003 182.122 363.021 185.057C367.039 187.993 371.841 189.676 376.819 189.895C381.798 190.114 386.731 188.858 390.992 186.286C395.254 183.715 398.654 179.943 400.763 175.448C402.871 170.952 403.593 165.936 402.837 161.032C400.929 148.648 390.166 139.752 377.944 139.752Z" fill="#1F2A43"/>
<path d="M394.022 168.778C396.032 171.394 393.855 176.412 389.161 179.985C384.468 183.559 379.031 184.336 377.026 181.721C375.021 179.105 379.653 178.969 384.348 175.396C389.043 171.822 392.013 166.164 394.022 168.778Z" fill="white"/>
<path d="M394.763 164.638C393.344 164.698 392.64 163.226 392.561 161.382C392.483 159.537 393.062 158.009 394.48 157.95C395.898 157.891 397.112 159.341 397.19 161.19C397.268 163.038 396.181 164.579 394.763 164.638Z" fill="white"/>
<g opacity="0.3">
<path d="M374.443 163.933C374.916 163.166 374.674 162.163 373.904 161.693C373.133 161.222 372.125 161.463 371.653 162.23C371.18 162.997 371.422 164 372.192 164.47C372.963 164.941 373.971 164.7 374.443 163.933Z" fill="#1F2A43"/>
</g>
<g opacity="0.3">
<path d="M372.304 168.925C372.335 169.127 372.305 169.333 372.218 169.518C372.131 169.702 371.992 169.858 371.816 169.963C371.641 170.069 371.438 170.121 371.234 170.112C371.029 170.103 370.831 170.033 370.666 169.913C370.501 169.792 370.375 169.625 370.305 169.434C370.235 169.242 370.224 169.034 370.273 168.836C370.322 168.637 370.428 168.458 370.579 168.32C370.73 168.183 370.919 168.093 371.122 168.062C371.393 168.02 371.67 168.088 371.892 168.25C372.113 168.412 372.262 168.655 372.304 168.925Z" fill="#1F2A43"/>
</g>
<g opacity="0.3">
<path d="M386.79 155.39C386.821 155.592 386.791 155.798 386.705 155.983C386.618 156.167 386.478 156.323 386.303 156.428C386.128 156.534 385.925 156.586 385.72 156.577C385.515 156.568 385.318 156.498 385.153 156.378C384.988 156.257 384.862 156.09 384.792 155.898C384.722 155.707 384.711 155.499 384.759 155.301C384.808 155.102 384.915 154.923 385.066 154.785C385.217 154.648 385.406 154.558 385.608 154.526C385.88 154.485 386.157 154.553 386.379 154.715C386.6 154.877 386.748 155.12 386.79 155.39Z" fill="#1F2A43"/>
</g>
<g opacity="0.3">
<path d="M379.903 167.094C380.185 166.406 379.855 165.621 379.164 165.34C378.474 165.059 377.685 165.388 377.403 166.075C377.12 166.763 377.451 167.548 378.141 167.829C378.832 168.11 379.62 167.781 379.903 167.094Z" fill="#1F2A43"/>
</g>
<g style="mix-blend-mode:multiply">
<path d="M150.891 377.857L214.559 331.874C220.943 327.264 222.379 318.356 217.768 311.977L118.104 174.128C113.493 167.75 104.579 166.317 98.1958 170.927L34.5276 216.91C28.1439 221.52 26.7074 230.428 31.3189 236.807L130.982 374.656C135.594 381.034 144.507 382.467 150.891 377.857Z" fill="#C3CAD9"/>
</g>
<path d="M136.807 372.702L200.475 326.719C206.858 322.109 208.295 313.2 203.683 306.822L104.02 168.973C99.4084 162.595 90.495 161.161 84.1114 165.772L20.4431 211.754C14.0594 216.365 12.6229 225.273 17.2345 231.651L116.898 369.5C121.509 375.879 130.423 377.312 136.807 372.702Z" fill="#C3CAD9"/>
<path d="M131.77 377.266C128.666 377.901 125.444 377.629 122.491 376.481C119.538 375.333 116.979 373.358 115.121 370.794L15.4491 232.952C12.895 229.418 11.8501 225.014 12.5442 220.71C13.2382 216.405 15.6145 212.551 19.1504 209.996L82.814 164.005C86.3528 161.457 90.7582 160.414 95.064 161.107C99.3698 161.8 103.225 164.171 105.783 167.7L205.457 305.541C208.006 309.077 209.047 313.48 208.353 317.783C207.659 322.086 205.286 325.939 201.754 328.497L138.095 374.487C136.208 375.852 134.052 376.8 131.77 377.266ZM90.023 165.523C88.3497 165.864 86.7688 166.56 85.3861 167.562L21.7201 213.548C19.1278 215.423 17.3861 218.249 16.8779 221.405C16.3697 224.562 17.1366 227.791 19.0101 230.382L118.679 368.224C120.556 370.811 123.384 372.549 126.541 373.056C129.699 373.563 132.929 372.797 135.524 370.928L199.188 324.941C201.778 323.065 203.517 320.238 204.025 317.083C204.533 313.927 203.768 310.699 201.898 308.106L102.23 170.269C100.867 168.388 98.9911 166.941 96.8261 166.099C94.6612 165.257 92.2991 165.057 90.023 165.523Z" fill="#1F2A43"/>
<mask id="mask0_790_56990" style="mask-type:luminance" maskUnits="userSpaceOnUse" x="16" y="165" width="189" height="209">
<path d="M201.902 308.111L102.229 170.269C101.302 168.986 100.13 167.899 98.7812 167.068C97.4325 166.238 95.9334 165.682 94.3693 165.431C92.8053 165.18 91.207 165.239 89.6658 165.605C88.1245 165.971 86.6704 166.637 85.3866 167.565L21.7199 213.549C19.1276 215.423 17.3859 218.249 16.8777 221.406C16.3695 224.562 17.1364 227.791 19.0099 230.382L118.679 368.224C120.556 370.812 123.383 372.55 126.541 373.056C129.699 373.563 132.929 372.798 135.523 370.928L199.188 324.942C201.777 323.066 203.517 320.241 204.026 317.086C204.535 313.931 203.771 310.703 201.902 308.111Z" fill="white"/>
</mask>
<g mask="url(#mask0_790_56990)">
<path opacity="0.2" d="M168.309 162.024L129.503 153.999L81.1544 387.221L119.96 395.246L168.309 162.024Z" fill="white"/>
</g>
<g opacity="0.2">
<path d="M20.4367 211.769L21.5819 210.95C21.1572 212.904 21.1495 214.925 21.5593 216.882C21.9692 218.839 22.7874 220.687 23.9605 222.306L123.631 360.141C125.846 363.203 129.188 365.261 132.922 365.861C136.655 366.461 140.475 365.554 143.54 363.34L206.06 318.181C205.321 321.62 203.33 324.664 200.474 326.72L136.81 372.708C133.745 374.922 129.925 375.829 126.192 375.229C122.459 374.629 119.117 372.571 116.902 369.509L17.2285 231.667C16.1318 230.151 15.3449 228.433 14.9126 226.612C14.4803 224.791 14.4111 222.903 14.709 221.055C15.0069 219.208 15.666 217.437 16.6488 215.843C17.6316 214.25 18.9187 212.866 20.4367 211.769Z" fill="#1F2A43"/>
</g>
<path d="M21.7217 213.548L85.3877 167.561C87.7227 165.872 90.5862 165.076 93.458 165.317C96.3299 165.559 99.0195 166.822 101.038 168.877L79.766 182.603C78.8061 183.233 78.0057 184.078 77.4279 185.07C76.85 186.062 76.5105 187.175 76.436 188.32C76.366 189.4 76.0607 190.451 75.5416 191.4C75.0224 192.349 74.302 193.173 73.4307 193.815L47.9653 212.557C46.7887 213.424 45.3823 213.924 43.9227 213.995L40.5249 214.161C38.8401 214.242 37.2334 214.896 35.9698 216.013L18.4626 229.536C16.905 226.947 16.3756 223.869 16.979 220.909C17.5824 217.948 19.2748 215.322 21.7217 213.548Z" fill="white"/>
<path d="M200.345 325.709L136.688 371.694C134.479 373.293 131.793 374.096 129.069 373.97C126.345 373.845 123.744 372.799 121.693 371.003L204.495 311.509C205.478 314 205.604 316.748 204.852 319.319C204.101 321.889 202.515 324.138 200.345 325.709Z" fill="white"/>
<path d="M199.584 312.422L99.9117 174.579C98.9855 173.293 97.8145 172.204 96.4658 171.372C95.1171 170.54 93.6172 169.982 92.0522 169.731C90.4872 169.48 88.8879 169.54 87.346 169.908C85.8041 170.276 84.3501 170.944 83.0672 171.875L19.4021 217.859C18.6027 218.442 17.8778 219.122 17.2435 219.881C17.9933 217.333 19.5688 215.105 21.7226 213.548L85.3886 167.561C86.6724 166.634 88.1265 165.967 89.6678 165.601C91.209 165.235 92.8073 165.176 94.3713 165.427C95.9354 165.678 97.4345 166.234 98.7831 167.065C100.132 167.895 101.304 168.982 102.231 170.265L201.904 308.11C203.474 310.288 204.271 312.927 204.171 315.61C204.07 318.292 203.078 320.865 201.35 322.921C201.881 321.153 201.998 319.286 201.692 317.465C201.386 315.645 200.665 313.919 199.584 312.422Z" fill="white"/>
<path d="M18.3684 231.391C18.0212 231.463 17.6599 231.415 17.3436 231.255C17.0273 231.095 16.7747 230.832 16.6271 230.51C16.4794 230.188 16.4454 229.825 16.5307 229.481C16.616 229.137 16.8154 228.832 17.0964 228.616L34.9713 214.803C36.4975 213.475 38.4258 212.698 40.4467 212.596L43.8459 212.43C44.9971 212.376 46.1065 211.982 47.0339 211.298L72.4983 192.55C73.1862 192.045 73.7549 191.396 74.1646 190.647C74.5743 189.899 74.8149 189.07 74.8695 188.219C74.9635 186.832 75.3763 185.486 76.0757 184.286C76.7751 183.085 77.7422 182.061 78.9019 181.295L98.3884 168.484C98.7357 168.255 99.1598 168.173 99.5674 168.257C99.9751 168.34 100.333 168.582 100.562 168.929C100.791 169.276 100.873 169.7 100.789 170.107C100.706 170.514 100.464 170.872 100.117 171.101L80.6256 183.912C79.8703 184.411 79.2403 185.077 78.7846 185.858C78.3289 186.64 78.0598 187.515 77.9983 188.418C77.9146 189.725 77.5453 190.998 76.9164 192.147C76.2874 193.296 75.4141 194.294 74.3578 195.07L48.8934 213.817C47.469 214.868 45.7653 215.473 43.9972 215.558L40.5992 215.73C39.2709 215.796 38.0044 216.31 37.0071 217.19C36.9818 217.213 36.9546 217.234 36.9275 217.255L19.0136 231.094C18.8243 231.241 18.6034 231.343 18.3684 231.391Z" fill="#1F2A43"/>
<path d="M120.356 373.721C120.005 373.792 119.639 373.741 119.321 373.576C119.003 373.411 118.751 373.142 118.607 372.813C118.464 372.485 118.437 372.118 118.531 371.772C118.626 371.426 118.836 371.124 119.126 370.914L205.081 309.155C205.248 309.028 205.438 308.935 205.641 308.883C205.844 308.831 206.056 308.82 206.263 308.851C206.47 308.882 206.669 308.954 206.848 309.063C207.027 309.172 207.182 309.316 207.305 309.486C207.427 309.656 207.514 309.849 207.561 310.054C207.607 310.258 207.612 310.469 207.575 310.676C207.539 310.882 207.461 311.079 207.347 311.254C207.233 311.43 207.084 311.581 206.911 311.699L120.956 373.458C120.777 373.587 120.572 373.676 120.356 373.721Z" fill="#1F2A43"/>
<path d="M47.0183 205.116C46.7375 205.173 46.4458 205.132 46.1916 205C45.9374 204.868 45.7361 204.653 45.6209 204.391C45.5058 204.129 45.4839 203.836 45.5588 203.559C45.6337 203.283 45.8009 203.041 46.0326 202.872L57.9118 194.283C58.1812 194.088 58.5171 194.008 58.8454 194.061C59.1738 194.113 59.4678 194.294 59.6627 194.563C59.8576 194.832 59.9375 195.168 59.8848 195.496C59.8321 195.824 59.6511 196.118 59.3817 196.313L47.5025 204.903C47.3581 205.007 47.193 205.08 47.0183 205.116Z" fill="#1F2A43"/>
<path d="M64.9622 193.101C66.1501 192.859 66.9168 191.7 66.6746 190.513C66.4323 189.326 65.273 188.56 64.0851 188.802C62.8972 189.045 62.1306 190.204 62.3728 191.391C62.615 192.578 63.7743 193.344 64.9622 193.101Z" fill="#1F2A43"/>
<path d="M361.24 299.176C344.632 300.574 330.037 288.252 328.64 271.656C327.244 255.059 339.575 240.472 356.183 239.075C372.791 237.678 387.386 249.999 388.782 266.596C390.179 283.192 377.847 297.779 361.24 299.176Z" fill="#FF0083"/>
<path d="M361.422 301.05C377.289 299.716 390.088 286.718 390.745 270.407C391 264.076 389.37 257.811 386.061 252.406C382.753 247.001 377.915 242.698 372.159 240.041C366.403 237.384 359.988 236.492 353.725 237.479C347.461 238.465 341.631 241.286 336.971 245.583C332.312 249.881 329.031 255.463 327.546 261.623C326.06 267.783 326.436 274.245 328.625 280.191C330.815 286.138 334.719 291.301 339.846 295.03C344.972 298.758 351.09 300.884 357.425 301.137C358.758 301.191 360.093 301.162 361.422 301.05ZM386.985 270.259C386.358 285.838 373.166 298.005 357.574 297.385C341.982 296.764 329.812 283.571 330.439 267.992C331.067 252.413 344.26 240.241 359.851 240.871C375.443 241.501 387.613 254.681 386.986 270.26L386.985 270.259Z" fill="#1F2A43"/>
<g opacity="0.2">
<path d="M382.675 250.29C378.659 251.003 374.903 252.768 371.792 255.403C368.68 258.039 366.323 261.453 364.961 265.295L352.292 301.011C356.661 302.763 369.378 303.472 374.069 303.081C388.879 301.835 400.827 289.702 401.439 274.476C401.607 270.552 400.995 266.633 399.637 262.947C398.279 259.26 394.721 254.621 389.439 251.698C384.11 249.036 383.685 251.131 382.675 250.29Z" fill="#1F2A43"/>
</g>
<g opacity="0.2">
<path d="M338.151 291.185C343.406 296.02 350.212 298.827 357.349 299.102C374.002 299.771 388.045 286.82 388.715 270.183C389.022 262.748 386.556 255.464 381.793 249.743C383.749 251.549 385.458 253.605 386.877 255.856C384.598 252.223 381.573 249.115 378.002 246.737C381.678 252.09 383.518 258.491 383.247 264.979C382.577 281.62 368.54 294.569 351.881 293.902C346.367 293.689 341.018 291.963 336.422 288.913C337.245 290.106 338.154 291.24 339.139 292.304C338.8 291.939 338.471 291.566 338.151 291.185Z" fill="#1F2A43"/>
</g>
<g opacity="0.2">
<path d="M352.578 279.042L352.57 279.067C352.287 280.068 352.41 281.14 352.911 282.051C353.413 282.961 354.252 283.639 355.249 283.936C356.246 284.233 357.32 284.126 358.239 283.639C359.158 283.151 359.848 282.322 360.161 281.33L360.168 281.305L352.578 279.042Z" fill="#1F2A43"/>
<path d="M369.906 279.044L367.988 273.013L369.856 266.756C370.457 264.744 370.341 262.587 369.528 260.651C368.715 258.715 367.257 257.121 365.4 256.139L365.975 254.213C366.049 253.987 366.077 253.748 366.058 253.511C366.038 253.274 365.971 253.043 365.861 252.832C365.751 252.621 365.599 252.435 365.415 252.284C365.232 252.132 365.02 252.019 364.791 251.952C364.563 251.884 364.324 251.862 364.087 251.888C363.851 251.914 363.622 251.987 363.414 252.103C363.206 252.22 363.023 252.376 362.877 252.564C362.731 252.751 362.624 252.966 362.562 253.196L361.987 255.123C359.896 254.929 357.803 255.465 356.063 256.64C354.324 257.815 353.045 259.556 352.445 261.567L350.578 267.822L345.662 271.821C345.409 272.028 345.216 272.3 345.106 272.608C344.995 272.915 344.97 273.247 345.034 273.568C345.098 273.889 345.248 274.186 345.469 274.428C345.689 274.67 345.971 274.847 346.284 274.941L367.676 281.314C367.99 281.408 368.323 281.414 368.64 281.332C368.957 281.251 369.246 281.084 369.476 280.851C369.705 280.617 369.866 280.326 369.942 280.007C370.018 279.689 370.006 279.356 369.906 279.044Z" fill="#1F2A43"/>
</g>
<path d="M350.598 277.952C350.596 277.96 350.593 277.968 350.589 277.976C350.289 278.982 350.401 280.066 350.9 280.99C351.4 281.914 352.246 282.601 353.253 282.901C354.26 283.201 355.345 283.089 356.269 282.59C357.193 282.09 357.881 281.245 358.182 280.238C358.181 280.231 358.18 280.223 358.18 280.214L350.598 277.952Z" fill="white"/>
<path d="M367.927 277.954L366.008 271.923L367.875 265.667C368.475 263.656 368.359 261.498 367.547 259.562C366.734 257.627 365.276 256.032 363.419 255.05L363.993 253.124C364.06 252.9 364.082 252.665 364.058 252.433C364.034 252.201 363.965 251.975 363.854 251.77C363.742 251.564 363.592 251.382 363.411 251.235C363.229 251.087 363.021 250.977 362.797 250.91C362.573 250.843 362.338 250.821 362.105 250.845C361.872 250.869 361.647 250.939 361.441 251.05C361.235 251.161 361.053 251.311 360.906 251.492C360.758 251.674 360.648 251.882 360.581 252.106L360.006 254.032C357.915 253.839 355.822 254.376 354.082 255.551C352.342 256.726 351.063 258.466 350.463 260.477L348.596 266.734L343.681 270.73C343.427 270.936 343.234 271.208 343.123 271.516C343.012 271.824 342.987 272.156 343.051 272.477C343.115 272.798 343.266 273.095 343.486 273.337C343.707 273.579 343.989 273.756 344.303 273.849L365.695 280.222C366.009 280.316 366.342 280.323 366.659 280.241C366.976 280.16 367.265 279.994 367.495 279.76C367.725 279.527 367.886 279.235 367.962 278.917C368.038 278.599 368.026 278.266 367.927 277.954Z" fill="white"/>
<g opacity="0.4">
<path d="M330.44 267.992C330.717 261.296 333.362 254.915 337.904 249.984C342.446 245.053 348.591 241.892 355.245 241.063C355.603 241.019 355.962 240.978 356.32 240.948C357.494 240.85 358.673 240.824 359.85 240.871C363.566 241.009 367.217 241.882 370.593 243.44C373.968 244.998 377.001 247.21 379.514 249.948C379.983 250.455 380.424 250.982 380.852 251.517C375.833 246.448 369.071 243.478 361.94 243.211C360.762 243.162 359.582 243.186 358.407 243.283C356.882 243.414 355.37 243.669 353.887 244.046C352.584 245.998 350.492 248.004 347.843 249.663C345.006 251.438 342.081 252.47 339.651 252.7C335.221 257.673 332.692 264.052 332.511 270.708C332.331 277.364 334.51 283.869 338.665 289.075C338.413 288.82 338.157 288.566 337.917 288.302C335.388 285.579 333.426 282.382 332.142 278.895C330.859 275.409 330.28 271.703 330.44 267.992Z" fill="white"/>
</g>
</svg>
