<svg width="244" height="237" viewBox="0 0 244 237" fill="none" xmlns="http://www.w3.org/2000/svg">
<path opacity="0.5" fill-rule="evenodd" clip-rule="evenodd" d="M293.161 127.422H429.908C440.645 127.422 449.35 136.618 449.35 147.965C449.35 159.272 440.703 168.447 430.015 168.507H362.464C351.727 168.507 343.022 177.705 343.022 189.051C343.022 200.396 351.727 209.594 362.464 209.594H378.631V209.594H375.901C386.639 209.594 395.344 218.792 395.344 230.137C395.344 241.482 386.639 250.68 375.901 250.68H370.038C370.002 250.68 369.967 250.68 369.931 250.68H286.383C275.645 250.68 266.94 259.878 266.94 271.223C266.94 282.568 275.645 291.766 286.383 291.766H302.135V291.766H319.818C330.556 291.766 339.261 300.964 339.261 312.31C339.261 323.615 330.616 332.789 319.931 332.852H286.383C275.645 332.852 266.94 342.05 266.94 353.396C266.94 364.741 275.645 373.939 286.383 373.939H302.135V373.939H357.88C368.618 373.939 377.323 383.137 377.323 394.482C377.323 405.827 368.618 415.025 357.88 415.025H67.3916C56.6542 415.025 47.9493 405.827 47.9493 394.482C47.9493 383.137 56.6542 373.939 67.3916 373.939H147.215V373.939H157.731C168.468 373.939 177.173 364.741 177.172 353.396C177.172 342.05 168.467 332.852 157.73 332.852H90.2549C79.5692 332.789 70.9249 323.615 70.9249 312.31C70.9249 300.964 79.6299 291.766 90.3673 291.766H147.215V250.68H73.4487C62.7113 250.68 54.0063 241.482 54.0063 230.137C54.0063 218.792 62.7113 209.594 73.4487 209.594H70.7185V209.594H112.701C123.438 209.594 132.143 200.396 132.143 189.051C132.143 177.705 123.438 168.507 112.701 168.507H29.1523C29.1166 168.507 29.0809 168.508 29.0452 168.508H19.4423C8.70494 168.508 0 159.31 0 147.965C0 136.619 8.70494 127.422 19.4423 127.422H156.189V127.421H166.589C177.327 127.421 186.032 118.223 186.032 106.878C186.032 95.5327 177.327 86.335 166.589 86.335H111.179C100.491 86.2744 91.8434 77.1 91.8434 65.7921C91.8434 54.4468 100.548 45.249 111.286 45.249H338.064C348.802 45.249 357.507 54.4468 357.507 65.7921C357.507 77.1 348.859 86.2744 338.171 86.335H266.567C255.829 86.335 247.124 95.5327 247.124 106.878C247.124 118.223 255.829 127.421 266.567 127.421H293.161V127.422ZM182.902 209.594H266.45C277.187 209.594 285.892 200.396 285.892 189.051C285.892 177.705 277.187 168.507 266.45 168.507H182.902C172.164 168.507 163.459 177.705 163.459 189.051C163.459 200.396 172.164 209.594 182.902 209.594Z" fill="#C3CAD9"/>
<g style="mix-blend-mode:multiply">
<path d="M283.666 299.329C276.784 299.867 270.6 298.501 265.283 295.924C253.44 290.192 245.876 278.473 244.382 268.507C242.728 251.707 241.207 244.582 228.13 244.864L248.419 233.208C251.663 235.56 253.374 240.879 254.775 244.262L254.771 244.265C255.959 247.141 256.438 250.414 256.124 254.129C255.837 257.539 256.18 260.98 257.348 264.193C260.144 271.878 265.066 276.713 273.071 277.409L273.074 277.413C274.036 277.494 275.002 277.52 275.967 277.489C281.583 276.77 286.331 278.126 289.588 280.537C294.402 284.092 295.958 289.944 292.262 294.776C290.206 297.459 287.039 299.064 283.666 299.329Z" fill="#C3CAD9"/>
<path d="M283.666 299.329C276.784 299.867 270.6 298.501 265.283 295.924C275.26 292.396 278.736 286.538 273.073 277.414C274.035 277.496 275.001 277.522 275.966 277.491C289.877 275.703 298.463 286.67 292.261 294.778C290.207 297.459 287.039 299.064 283.666 299.329Z" fill="#C3CAD9"/>
<path d="M251.923 232.867C212.655 260.832 179.867 243.477 176.2 217.224C175.877 214.911 175.781 212.571 175.914 210.239C172.55 196.596 166.987 183.835 158.536 172.218C157.136 170.294 155.655 168.4 154.093 166.536C146.125 166.474 137.556 163.843 128.7 159.996C124.668 158.234 121.49 154.958 119.85 150.875C117.697 145.559 115.98 140.453 114.935 135.684C114.68 134.522 114.464 133.377 114.291 132.259C107.707 128.259 102.45 122.956 98.307 116.56C97.7695 115.724 97.5824 114.71 97.7863 113.738C97.9902 112.765 98.5685 111.912 99.3964 111.362C103.496 108.631 107.806 106.955 112.349 106.419C112.943 106.344 113.546 106.293 114.151 106.262C117.953 93.9547 125.304 84.4518 136.311 77.8459C135.718 71.1805 136.038 64.4654 137.262 57.8866C137.878 54.578 141.179 52.5107 144.455 53.2855C152.842 55.2669 160.432 59.9112 167.408 66.6244C177.392 69.2436 187.146 72.4164 196.357 76.899C198.381 77.8785 200.187 79.2556 201.668 80.9482C203.148 82.6407 204.273 84.614 204.974 86.7505C205.257 87.6121 205.517 88.4745 205.77 89.3384C205.773 89.3432 205.775 89.3485 205.777 89.354C209.212 101.256 209.826 113.391 208.568 125.688C239.842 129.502 266.208 149.223 273.203 175.078C274.961 181.565 275.454 188.33 274.653 195.003C272.856 210.261 264.435 223.953 251.923 232.867Z" fill="#C3CAD9"/>
<path d="M100.353 114.522C99.9066 114.818 99.5286 115.205 99.2438 115.658C98.9589 116.111 98.7737 116.619 98.7005 117.149C98.5679 116.955 98.4421 116.757 98.3129 116.56C97.7754 115.725 97.5884 114.711 97.7922 113.738C97.9961 112.766 98.5745 111.912 99.4024 111.363C103.502 108.632 107.812 106.956 112.355 106.42C112.359 106.417 112.359 106.417 112.362 106.415C112.558 106.387 112.763 106.364 112.964 106.349C113.059 106.34 113.154 106.331 113.246 106.325C113.549 106.295 113.843 106.28 114.151 106.262C117.953 93.9547 125.304 84.4518 136.311 77.8459C137.074 79.717 136.473 81.8857 134.824 83.0515C126.426 88.9851 120.654 97.1601 117.267 107.374C117.102 107.866 116.82 108.31 116.444 108.668C116.068 109.026 115.61 109.287 115.111 109.427C109.9 109.689 104.992 111.431 100.353 114.522Z" fill="#C3CAD9"/>
<path d="M176.868 213.396C176.661 216.959 176.993 220.532 177.853 223.995C176.328 219.718 175.644 215.069 175.912 210.241C175.535 208.711 175.128 207.191 174.691 205.682C175.503 208.219 176.229 210.791 176.868 213.396Z" fill="#C3CAD9"/>
<path d="M204.974 86.7505C208.436 97.4022 209.565 108.249 209.052 119.231C209.132 109.651 210.437 101.591 207.406 92.2734C206.705 90.1363 205.563 86.2361 204.082 84.5434C202.601 82.8507 202.627 78.3477 200.602 77.3691C191.392 72.886 177.865 69.5534 167.877 66.9361C160.902 60.2236 151.701 55.8302 143.317 53.8463C140.042 53.0709 137.768 58.6896 137.149 62.0015C136.572 65.0836 136.198 68.2001 136.028 71.3312C136.02 66.8204 136.433 62.3188 137.261 57.8847C137.877 54.5761 141.178 52.5088 144.454 53.2836C152.841 55.2649 160.43 59.9092 167.406 66.6225C177.39 69.2417 187.145 72.4145 196.355 76.897C198.38 77.8766 200.187 79.254 201.667 80.9469C203.148 82.6398 204.273 84.6135 204.974 86.7505Z" fill="#C3CAD9"/>
<path d="M274.911 192.201C274.512 160.154 256.289 137.836 223.574 129.732C223.716 128.367 208.71 127.077 208.8 125.719C246.579 130.423 277.131 158.347 274.911 192.201Z" fill="#C3CAD9"/>
<path d="M165.464 161.544C150.363 162.315 137.112 147.357 140.084 129.553C140.319 128.157 140.27 126.727 139.94 125.35C139.609 123.973 139.005 122.677 138.163 121.538C130.646 111.393 135.41 104.795 146.674 109.33C149.017 110.273 151.627 110.305 153.993 109.421C181.861 98.9508 195.815 120.694 195.228 136.49C185.177 148.935 175.12 161.644 165.464 161.544Z" fill="#C3CAD9"/>
<path d="M158.536 172.218C157.136 170.294 155.655 168.4 154.093 166.536C146.125 166.474 137.556 163.843 128.7 159.996C124.668 158.234 121.49 154.958 119.85 150.875C117.697 145.559 115.98 140.453 114.935 135.684C127.123 161.347 156.338 150.969 164.397 147.865C182.094 137.109 200.537 109.671 203.831 85.4357C203.831 85.4357 204.411 85.2686 204.415 85.2808C207.85 97.1825 209.824 113.389 208.565 125.686C208.565 125.686 200.862 137.075 195.02 141.345C189.215 145.592 158.903 171.899 158.536 172.218Z" fill="#C3CAD9"/>
<path d="M120.797 155.93C119.759 154.581 118.91 153.097 118.272 151.52C115.432 144.503 113.617 138.534 112.736 133.304C106.443 129.343 101.109 124.023 96.8787 117.489C95.26 114.987 95.9658 111.604 98.4519 109.949C103.037 106.895 107.884 105.117 112.881 104.652C116.798 92.7967 124.075 83.4831 134.53 76.9435C134.047 70.4695 134.402 63.9603 135.586 57.5771C135.77 56.577 136.157 55.6252 136.723 54.7804C137.289 53.9356 138.022 53.2156 138.876 52.6649C139.75 52.0993 140.729 51.7161 141.755 51.5383C142.78 51.3605 143.831 51.3918 144.844 51.6303C153.024 53.5632 160.901 58.0908 168.263 65.0926C179.765 68.13 188.938 71.4008 197.1 75.3722C201.6 77.5604 205.06 81.519 206.59 86.2266C210.395 97.9332 211.647 110.374 210.415 124.218C229.394 126.872 246.586 135.189 258.975 147.742C272.21 161.15 278.376 178.005 276.345 195.203C274.513 210.717 265.969 224.95 252.907 234.255C241.659 242.266 230.412 247.037 219.477 248.433C209.682 249.685 200.443 248.106 192.756 243.87C180.608 237.175 173.516 224.368 174.2 210.401C170.167 194.171 163.326 180.362 153.284 168.224C146.067 168.026 138.015 165.895 128.023 161.561C125.175 160.328 122.688 158.39 120.797 155.93ZM115.646 131.226C115.821 131.454 115.936 131.723 115.979 132.007C116.768 137.16 118.549 143.121 121.431 150.241C122.935 153.954 125.758 156.866 129.38 158.438C139.306 162.745 147.163 164.777 154.11 164.837C154.356 164.839 154.599 164.894 154.822 164.999C155.045 165.103 155.242 165.255 155.4 165.444C166.1 178.2 173.351 192.715 177.568 209.833C177.609 209.997 177.624 210.166 177.615 210.334C176.905 223.082 183.337 234.79 194.401 240.887C209.923 249.444 230.528 246.014 250.935 231.48C263.219 222.729 271.247 209.363 272.967 194.801C276.855 161.887 248.476 132.27 208.363 127.377C207.921 127.322 207.517 127.097 207.239 126.748C206.961 126.4 206.831 125.957 206.876 125.513C208.314 111.491 207.164 98.984 203.358 87.2748C202.112 83.4412 199.289 80.2166 195.616 78.429C187.559 74.5082 178.46 71.28 166.978 68.268C166.697 68.1943 166.439 68.05 166.229 67.8487C159.118 61.0092 151.871 56.7836 144.067 54.9388C143.502 54.8018 142.915 54.7821 142.342 54.8811C141.768 54.98 141.222 55.1954 140.735 55.514C140.268 55.8154 139.867 56.2095 139.558 56.6718C139.249 57.1341 139.037 57.6549 138.937 58.202C137.745 64.6298 137.432 71.1897 138.005 77.7019C138.033 78.0199 137.971 78.3394 137.826 78.6238C137.682 78.9083 137.46 79.1462 137.186 79.3105C126.656 85.6261 119.454 94.8652 115.779 106.77C115.675 107.103 115.472 107.396 115.196 107.61C114.921 107.824 114.586 107.948 114.238 107.966C109.445 108.21 106.078 112.74 101.646 115.692C101.193 115.995 100.84 114.987 100.727 115.521C100.614 116.054 99.442 115.176 99.7342 115.637C103.833 121.969 109.028 127.074 115.175 130.808C115.357 130.917 115.516 131.059 115.646 131.226Z" fill="#C3CAD9"/>
<path d="M250.272 285.73C246.288 280.552 243.57 274.553 242.702 268.765C242.698 268.737 242.694 268.708 242.692 268.679C241.026 251.771 237.353 243.513 225.988 243.755C225.764 243.76 226.381 245.228 226.173 245.147C225.965 245.066 225.206 244.723 225.9 245.051C225.738 244.897 226.082 245.146 225.992 244.941C225.902 244.737 226.434 245.127 226.429 244.903C226.424 244.68 226.463 244.458 226.545 244.249C226.626 244.041 226.747 243.851 226.902 243.689C227.056 243.528 227.241 243.399 227.446 243.309C227.65 243.219 227.871 243.17 228.094 243.165C235.13 243.015 239.425 244.95 242.016 249.433C244.469 253.679 245.278 260.208 246.075 268.302C248.107 281.69 262.237 299.311 283.538 297.635C286.51 297.402 289.198 295.983 290.911 293.744C292.931 291.104 293.153 287.967 291.522 285.134C289.556 281.733 284.368 278.131 276.185 279.185C276.13 279.192 276.075 279.197 276.022 279.201C266.163 279.508 259.341 274.657 255.75 264.785C254.548 261.48 254.102 257.85 254.427 253.996C255.033 246.802 252.519 241.265 246.746 237.074C246.564 236.943 246.41 236.777 246.293 236.587C246.175 236.396 246.096 236.184 246.06 235.963C246.024 235.741 246.033 235.515 246.084 235.297C246.136 235.079 246.23 234.873 246.361 234.691C246.492 234.51 246.658 234.356 246.849 234.238C247.039 234.12 247.251 234.041 247.473 234.005C247.694 233.97 247.92 233.978 248.138 234.03C248.356 234.081 248.562 234.175 248.744 234.306C255.468 239.189 258.524 245.907 257.817 254.27C257.534 257.629 257.914 260.771 258.946 263.609C262.012 272.035 267.535 276.017 275.835 275.789C283.903 274.778 291.21 277.775 294.468 283.427C296.785 287.449 296.466 292.077 293.612 295.806C291.312 298.81 287.736 300.711 283.802 301.02C270.412 302.074 260.949 296.288 255.368 291.247C253.507 289.565 251.802 287.718 250.272 285.73Z" fill="#C3CAD9"/>
<path d="M156.252 67.8262C151.921 69.3258 147.728 71.7117 143.613 74.6004C140.725 60.8471 143.723 56.6216 156.252 67.8262Z" fill="#C3CAD9"/>
<path d="M156.252 67.8262C154.975 68.2703 153.723 68.7813 152.5 69.3562C147.417 65.241 144.24 64.212 142.633 65.7229C143.011 59.6915 147.072 59.6162 156.252 67.8262Z" fill="#C3CAD9"/>
<path d="M113.239 114.844C101.582 114.27 101.45 117.354 112.844 124.097L113.239 114.844Z" fill="#C3CAD9"/>
<path d="M113.095 118.242C109.331 118.116 106.906 118.414 105.821 119.137C102.502 115.87 104.974 114.439 113.238 114.842L113.095 118.242Z" fill="#C3CAD9"/>
<path d="M142.769 75.2497C142.672 75.1229 142.604 74.9757 142.571 74.8192C140.874 66.7328 141.262 62.2847 143.793 60.8216C146.372 59.3316 150.556 61.305 156.961 67.0337C157.1 67.1572 157.203 67.3147 157.262 67.4906C157.321 67.6665 157.333 67.8548 157.296 68.0366C157.26 68.2185 157.176 68.3876 157.054 68.5273C156.932 68.667 156.776 68.7723 156.6 68.8328C152.727 70.174 148.678 72.3453 144.224 75.4723C143.999 75.6294 143.723 75.694 143.452 75.6525C143.181 75.6111 142.936 75.4668 142.769 75.2497ZM154.208 67.4539C147.8 62.0036 145.544 62.2681 144.857 62.6639C144.185 63.0523 142.861 64.8187 144.342 72.8088C147.813 70.4775 151.067 68.7117 154.208 67.4539Z" fill="#C3CAD9"/>
<path d="M104.225 118.938C103.422 117.894 103.174 116.979 103.425 116.14C104.015 114.175 106.966 113.47 113.292 113.781C113.572 113.795 113.836 113.919 114.025 114.127C114.215 114.334 114.314 114.608 114.302 114.889L113.907 124.142C113.899 124.326 113.843 124.504 113.746 124.66C113.649 124.816 113.512 124.944 113.351 125.032C113.189 125.12 113.007 125.164 112.823 125.16C112.64 125.157 112.46 125.106 112.301 125.012C108.109 122.531 105.483 120.572 104.225 118.938ZM112.131 115.863C105.97 115.673 105.467 116.741 105.465 116.755C105.463 116.77 105.16 118.095 111.859 122.258L112.131 115.863Z" fill="#C3CAD9"/>
<path d="M159.844 96.0813C158.747 96.708 157.745 97.2795 156.868 97.9489C156.007 98.5949 155.241 99.3588 154.593 100.218C153.935 101.115 153.379 102.082 152.934 103.102C152.451 104.156 152.05 105.29 151.582 106.473L151.577 106.486C151.524 106.622 151.427 106.736 151.303 106.81C151.178 106.885 151.032 106.917 150.887 106.9C150.743 106.883 150.608 106.818 150.504 106.717C150.4 106.615 150.333 106.482 150.313 106.338C150.129 104.994 150.188 103.629 150.488 102.306C150.794 100.918 151.378 99.607 152.205 98.4516C153.055 97.262 154.19 96.3052 155.506 95.6694C156.768 95.0518 158.167 94.765 159.57 94.8358C159.712 94.8444 159.848 94.8986 159.957 94.9904C160.066 95.0821 160.142 95.2064 160.175 95.345C160.208 95.4837 160.195 95.6291 160.139 95.76C160.083 95.8908 159.986 96 159.862 96.0714L159.844 96.0813Z" fill="#C3CAD9"/>
<path d="M135.908 124.551C134.975 125.479 134.06 126.332 133.249 127.228C132.438 128.124 131.724 129.039 131.177 130.018C130.632 130.993 130.224 132.038 129.965 133.124C129.69 134.23 129.573 135.416 129.458 136.718L129.457 136.733C129.444 136.876 129.386 137.01 129.291 137.117C129.195 137.224 129.068 137.297 128.928 137.325C128.788 137.354 128.642 137.336 128.513 137.275C128.383 137.214 128.277 137.113 128.21 136.986C127.545 135.733 127.242 134.273 127.307 132.784C127.381 131.277 127.832 129.812 128.616 128.523C129.374 127.272 130.374 126.186 131.557 125.326C132.68 124.497 133.935 123.862 135.268 123.448C135.408 123.406 135.558 123.411 135.695 123.463C135.831 123.516 135.946 123.612 136.021 123.738C136.097 123.863 136.128 124.01 136.11 124.155C136.092 124.301 136.026 124.436 135.923 124.539L135.908 124.551Z" fill="#C3CAD9"/>
<path d="M150.261 117.659C151.797 121.905 150.092 123.763 145.147 123.234C144.936 123.212 144.736 123.135 144.565 123.01C144.394 122.885 144.26 122.717 144.176 122.522C144.091 122.328 144.06 122.115 144.086 121.905C144.111 121.695 144.192 121.496 144.32 121.327C145.602 119.643 146.956 118.196 148.425 117.12C148.574 117.009 148.747 116.934 148.929 116.901C149.112 116.868 149.3 116.878 149.478 116.93C149.656 116.982 149.82 117.076 149.956 117.202C150.092 117.329 150.196 117.485 150.261 117.659Z" fill="#C3CAD9"/>
<path d="M157.509 112.83C157.783 114.007 157.949 115.238 157.839 116.523C157.744 117.792 157.315 119.161 156.403 120.254C155.5 121.362 154.194 122.026 152.937 122.377C151.663 122.729 150.386 122.801 149.151 122.735L150.13 121.221C150.718 122.325 150.993 123.568 150.927 124.817C150.861 126.094 150.407 127.321 149.623 128.332C148.86 129.319 147.815 130.05 146.626 130.429C145.486 130.81 144.307 130.867 143.189 130.757C143.058 130.745 142.936 130.684 142.847 130.586C142.758 130.489 142.708 130.362 142.707 130.23C142.707 130.098 142.755 129.97 142.843 129.871C142.931 129.773 143.052 129.711 143.184 129.697L143.207 129.694C144.218 129.586 145.19 129.363 146.031 128.949C146.871 128.535 147.56 127.932 148.016 127.195C148.46 126.449 148.698 125.599 148.707 124.731C148.712 123.838 148.541 122.952 148.203 122.124C148.096 121.851 148.102 121.546 148.22 121.276C148.338 121.007 148.558 120.795 148.831 120.688C148.944 120.645 149.063 120.62 149.183 120.613C150.286 120.561 151.365 120.463 152.353 120.213C153.341 119.964 154.237 119.561 154.891 118.897C155.545 118.233 155.981 117.324 156.214 116.288C156.447 115.251 156.481 114.126 156.457 112.985L156.457 112.969C156.455 112.837 156.501 112.709 156.587 112.609C156.674 112.509 156.794 112.445 156.925 112.429C157.056 112.412 157.188 112.445 157.296 112.52C157.404 112.596 157.481 112.709 157.511 112.837L157.509 112.83Z" fill="#C3CAD9"/>
<path d="M219.034 207.926C247.417 142.682 191.593 112.711 174.004 157.523C123.649 164.059 156.549 236.236 219.034 207.926Z" fill="#C3CAD9"/>
<path d="M219.034 207.928C182.092 224.663 154.028 202.639 148.858 183.452C157.968 191.166 170.142 197.654 186.309 195.517C196.462 194.175 205.049 187.281 208.605 177.676C214.024 163.037 216.395 150.787 213.394 141.17C226.232 151.043 233.359 174.991 219.034 207.928Z" fill="#C3CAD9"/>
<path d="M196.83 140.332C196.439 144.375 190.431 148.682 186.332 145.523C186.339 145.517 186.342 145.515 186.346 145.512L186.332 145.523C184.03 147.444 181.878 149.879 179.94 152.852C177.513 156.584 175.798 160.732 174.731 165.054L173.717 169.164C173.699 169.236 173.657 169.3 173.597 169.343C173.537 169.387 173.464 169.409 173.39 169.405C173.316 169.4 173.246 169.37 173.192 169.32C173.138 169.269 173.103 169.201 173.093 169.128L172.684 166.029L173.544 161.587C153.393 165.116 147.803 179.802 152.786 193.337C144.983 178.44 150.156 160.616 174.007 157.52C185.707 127.717 214.323 130.993 223.819 155.734C217.824 143.962 207.096 138.268 196.83 140.332Z" fill="#C3CAD9"/>
<path d="M186.346 145.512C186.346 145.512 186.338 145.518 186.331 145.524L186.346 145.512Z" fill="#C3CAD9"/>
<path d="M154.822 199.279C148.709 191.335 146.397 181.825 148.906 173.594C151.768 164.196 160.292 158.027 172.945 156.166C177.953 143.99 186.408 136.254 196.241 134.893C204.972 133.685 213.811 137.704 219.926 145.65L220.067 145.833C225.095 152.461 227.971 161.268 228.381 171.296C228.85 182.747 226.166 195.27 220.402 208.518C220.255 208.857 219.987 209.128 219.652 209.281C207.536 214.77 195.833 216.898 184.868 215.606C175.373 214.487 166.812 210.784 160.11 204.9C158.17 203.202 156.399 201.319 154.822 199.279ZM217.563 147.47C212.108 140.382 204.303 136.787 196.644 137.846C187.694 139.083 179.948 146.457 175.388 158.068C175.291 158.317 175.129 158.534 174.919 158.698C174.709 158.862 174.459 158.967 174.194 159.001C162.289 160.547 154.319 166.037 151.752 174.464C148.958 183.637 153.008 194.708 162.072 202.666C175.807 214.724 196.639 216.259 217.895 206.805C228.01 183.232 227.938 161.148 217.689 147.636L217.563 147.47Z" fill="#C3CAD9"/>
<path d="M175.268 157.722L173.226 166.72C173.189 166.877 173.094 167.015 172.961 167.105C172.827 167.195 172.664 167.232 172.504 167.207C172.345 167.182 172.2 167.098 172.1 166.972C172 166.845 171.952 166.685 171.964 166.524L172.746 157.331C172.751 157.157 172.792 156.987 172.866 156.829C172.939 156.672 173.044 156.532 173.174 156.416C173.303 156.301 173.455 156.213 173.62 156.158C173.784 156.103 173.959 156.082 174.132 156.096C174.305 156.111 174.473 156.16 174.626 156.242C174.779 156.323 174.915 156.435 175.023 156.571C175.132 156.706 175.212 156.862 175.258 157.03C175.305 157.197 175.316 157.372 175.293 157.544C175.289 157.604 175.28 157.663 175.268 157.722Z" fill="#C3CAD9"/>
<path d="M226.778 175.166C210.466 185.828 199.464 170.547 210.41 159.305C210.536 159.175 210.66 159.043 210.782 158.91C211.2 158.464 211.613 158.013 212.005 157.561C216.472 152.493 219.401 147.196 219.652 141.495L238.289 156.844L238.331 156.877C238.291 157.133 238.243 157.391 238.188 157.647C236.972 163.624 232.771 169.983 228.09 174.079C227.664 174.462 227.219 174.826 226.778 175.166Z" fill="#C3CAD9"/>
<path d="M226.778 175.166C210.466 185.828 199.464 170.547 210.41 159.305C210.965 158.728 211.496 158.148 212.004 157.563C220.445 152.527 230.746 163.558 228.092 174.079C227.664 174.462 227.219 174.826 226.778 175.166Z" fill="#C3CAD9"/>
<path d="M220.295 141.523C220.321 142.796 220.221 144.068 219.997 145.32C219.743 146.571 219.391 147.8 218.943 148.995C218.479 150.178 217.935 151.329 217.314 152.439C216.69 153.537 216.004 154.599 215.259 155.619C214.514 156.628 213.745 157.627 212.904 158.551C212.494 159.021 212.066 159.479 211.637 159.934L210.45 161.217C208.996 162.943 207.894 164.956 207.478 167.099C207.075 169.233 207.352 171.47 208.406 173.304C209.44 175.149 211.245 176.485 213.302 177.078C214.348 177.388 215.437 177.524 216.527 177.48L216.94 177.476L217.356 177.433C217.632 177.401 217.909 177.387 218.184 177.34C218.734 177.228 219.29 177.155 219.833 176.983C222.022 176.399 224.125 175.371 226.064 174.074L225.985 174.135C227.359 173.034 228.652 171.834 229.852 170.545C231.081 169.257 232.209 167.876 233.224 166.414C234.232 164.943 235.164 163.414 235.925 161.8C236.686 160.186 237.317 158.513 237.708 156.773C237.742 156.613 237.837 156.472 237.973 156.379C238.109 156.287 238.275 156.25 238.437 156.277C238.599 156.304 238.744 156.392 238.843 156.524C238.942 156.655 238.986 156.819 238.967 156.982C238.747 158.877 238.287 160.736 237.596 162.515C236.919 164.293 236.08 166.004 235.09 167.629C234.099 169.255 232.983 170.802 231.752 172.256C230.501 173.715 229.099 175.039 227.571 176.205L227.552 176.219C227.532 176.234 227.511 176.251 227.491 176.266C225.35 177.635 223.015 178.782 220.495 179.462C219.872 179.654 219.216 179.75 218.57 179.876C218.245 179.928 217.911 179.948 217.581 179.984L217.086 180.033L216.585 180.04C215.233 180.089 213.881 179.918 212.583 179.534C211.258 179.15 210.015 178.526 208.916 177.693C207.808 176.849 206.882 175.79 206.194 174.58C204.803 172.163 204.467 169.267 204.974 166.622C205.241 165.309 205.681 164.037 206.284 162.84L206.752 161.964C206.919 161.678 207.106 161.407 207.281 161.128L207.548 160.712L207.844 160.32L208.437 159.537L209.083 158.808C209.3 158.561 209.518 158.321 209.714 158.113C210.12 157.679 210.523 157.245 210.913 156.795C211.697 155.901 212.472 155.008 213.197 154.072C213.922 153.136 214.612 152.187 215.253 151.203C215.884 150.219 216.461 149.201 216.98 148.152C218.017 146.051 218.706 143.795 219.022 141.474L219.022 141.463C219.043 141.303 219.124 141.157 219.248 141.054C219.372 140.951 219.53 140.899 219.691 140.907C219.851 140.916 220.003 140.985 220.116 141.1C220.228 141.216 220.293 141.369 220.297 141.53L220.295 141.523Z" fill="#C3CAD9"/>
<path d="M163.058 212.479C159.484 210.193 156.191 206.048 154.558 202.224C153.812 200.466 153.769 198.489 154.438 196.7C155.108 194.911 156.438 193.447 158.155 192.61C171.232 186.22 180.968 197.621 173.586 209.949C171.39 213.616 166.663 214.78 163.058 212.479Z" fill="#C3CAD9"/>
<path d="M163.055 212.477C159.481 210.192 156.188 206.046 154.557 202.223C154.036 201 153.852 199.66 154.025 198.342C154.198 197.024 154.72 195.777 155.539 194.729C155.591 194.888 155.652 195.045 155.72 195.202C157.356 199.022 160.648 203.168 164.222 205.454C167.821 207.759 172.555 206.591 174.747 202.923C175.252 202.081 175.694 201.204 176.071 200.297C176.36 203.206 175.625 206.542 173.586 209.948C171.387 213.614 166.663 214.78 163.055 212.477Z" fill="#C3CAD9"/>
<path d="M156.56 208.071C155.267 206.391 154.166 204.558 153.384 202.726C152.506 200.667 152.454 198.349 153.237 196.252C154.02 194.155 155.58 192.44 157.593 191.461C164.03 188.317 170.441 188.991 174.327 193.222C178.28 197.53 178.423 204.354 174.681 210.603C174.075 211.629 173.267 212.521 172.307 213.226C171.346 213.932 170.253 214.435 169.093 214.707C167.952 214.978 166.769 215.016 165.613 214.818C164.458 214.62 163.355 214.19 162.37 213.554C160.298 212.229 158.262 210.283 156.56 208.071ZM172.931 195.525C172.779 195.327 172.616 195.135 172.446 194.948C169.356 191.584 164.094 191.127 158.714 193.755C157.29 194.447 156.186 195.66 155.631 197.143C155.075 198.626 155.111 200.265 155.731 201.722C157.332 205.47 160.553 209.361 163.746 211.403C164.443 211.854 165.224 212.159 166.042 212.3C166.86 212.441 167.698 212.415 168.506 212.223C169.333 212.029 170.113 211.669 170.797 211.165C171.482 210.662 172.057 210.025 172.489 209.292C175.468 204.318 175.611 199.012 172.929 195.527L172.931 195.525Z" fill="#C3CAD9"/>
<path d="M238.934 220.264C238.593 220.13 238.251 220.012 237.904 219.903L237.898 219.902C235.472 219.144 232.916 219.016 230.274 219.283C226.859 219.624 223.305 220.636 219.719 221.806C205.115 224.243 200.676 209.265 209.629 204.916C211.858 203.828 214.924 203.402 218.871 204.075C219.043 204.103 219.215 204.136 219.387 204.166C219.295 203.544 219.239 202.918 219.222 202.29C218.819 189.656 233.202 177.738 249.189 180.007C249.957 180.114 250.728 180.255 251.502 180.433L239.02 219.994L238.934 220.264Z" fill="#C3CAD9"/>
<path d="M220.695 208.593L219.217 202.294C218.814 189.659 233.197 177.742 249.184 180.011L249.496 180.275C231.225 184.231 220.948 193.246 220.695 208.593Z" fill="#C3CAD9"/>
<path d="M230.275 219.284C226.86 219.625 223.306 220.637 219.719 221.808C201.471 224.848 199.094 200.717 218.871 204.075L221.923 212.233C221.923 212.233 223.895 216.89 229.225 218.694C229.713 218.86 230.055 219.06 230.275 219.284Z" fill="#C3CAD9"/>
<path d="M251.361 181.055C247.617 180.508 243.843 180.607 240.23 181.392C238.425 181.784 236.662 182.347 234.963 183.073C233.274 183.802 231.656 184.686 230.13 185.713C227.103 187.773 224.439 190.439 222.692 193.628C220.936 196.794 220.123 200.457 220.646 203.982C220.676 204.179 220.658 204.38 220.596 204.569C220.534 204.757 220.428 204.929 220.288 205.07C220.147 205.211 219.976 205.317 219.787 205.38C219.598 205.443 219.397 205.461 219.2 205.433L219.146 205.424L217.999 205.25L217.426 205.162L216.851 205.121C216.47 205.097 216.087 205.057 215.706 205.046L214.574 205.062C213.076 205.139 211.607 205.424 210.321 206.024C209.035 206.623 207.944 207.527 207.235 208.689C206.545 209.882 206.221 211.252 206.304 212.628C206.417 214.036 206.889 215.391 207.675 216.565C208.453 217.753 209.556 218.72 210.82 219.412C212.112 220.111 213.53 220.549 214.991 220.701C216.476 220.863 217.996 220.774 219.509 220.551L219.325 220.595C220.896 220.079 222.476 219.552 224.099 219.128C225.737 218.709 227.406 218.417 229.089 218.255C230.782 218.083 232.509 218.054 234.22 218.271C235.935 218.464 237.607 218.937 239.17 219.67C239.315 219.74 239.429 219.862 239.488 220.012C239.548 220.162 239.548 220.329 239.49 220.479C239.432 220.629 239.319 220.752 239.174 220.823C239.029 220.893 238.863 220.907 238.709 220.86C237.208 220.414 235.653 220.178 234.088 220.158C232.519 220.151 230.952 220.29 229.408 220.571C227.853 220.844 226.318 221.269 224.77 221.675C223.221 222.081 221.666 222.523 220.12 223.025L220.1 223.032C220.045 223.049 219.99 223.062 219.934 223.071C218.222 223.326 216.468 223.429 214.705 223.239C212.912 223.049 211.175 222.509 209.591 221.649C208 220.776 206.577 219.533 205.561 217.99C204.523 216.441 203.903 214.65 203.761 212.792C203.646 210.893 204.099 209.003 205.062 207.362C206.053 205.729 207.582 204.477 209.248 203.706C210.914 202.934 212.715 202.597 214.466 202.507L215.777 202.489C216.212 202.502 216.641 202.545 217.076 202.576L217.721 202.623L218.356 202.719L219.627 202.913L218.128 204.355C217.832 202.293 217.896 200.196 218.318 198.156C218.741 196.139 219.461 194.195 220.457 192.39C221.437 190.601 222.64 188.942 224.035 187.454C225.415 185.967 226.959 184.641 228.637 183.502C231.988 181.224 235.795 179.706 239.794 179.054C243.753 178.409 247.806 178.669 251.65 179.811C251.805 179.857 251.937 179.961 252.019 180.1C252.101 180.24 252.127 180.405 252.092 180.563C252.057 180.721 251.964 180.86 251.83 180.952C251.697 181.044 251.534 181.081 251.374 181.058L251.361 181.055Z" fill="#C3CAD9"/>
<path d="M220.609 203.803L221.685 209.665C221.713 209.821 221.682 209.981 221.599 210.115C221.516 210.25 221.387 210.349 221.235 210.394C221.084 210.439 220.921 210.427 220.778 210.36C220.635 210.292 220.522 210.174 220.461 210.029L218.161 204.529C218.092 204.373 218.055 204.204 218.052 204.033C218.049 203.862 218.08 203.693 218.143 203.534C218.206 203.375 218.3 203.231 218.42 203.109C218.54 202.987 218.683 202.89 218.841 202.824C218.998 202.758 219.168 202.725 219.338 202.725C219.509 202.726 219.678 202.76 219.836 202.827C219.993 202.893 220.136 202.99 220.255 203.113C220.374 203.235 220.468 203.38 220.531 203.539C220.566 203.624 220.592 203.712 220.609 203.803Z" fill="#C3CAD9"/>
<path d="M197.834 227.732C204.336 199.553 180.682 192.52 175.914 210.239L175.958 214.966" fill="#C3CAD9"/>
<path d="M198.239 211.341C197.584 235.954 176.298 227.9 175.967 212.479C177.543 201.716 189.354 192.556 198.239 211.341Z" fill="#C3CAD9"/>
<path d="M197.212 227.589C197.935 223.626 198.264 219.586 197.757 215.68C197.536 213.746 197.062 211.85 196.346 210.04C195.63 208.262 194.639 206.623 193.396 205.256C192.154 203.89 190.644 202.789 188.943 202.24C187.253 201.682 185.426 201.698 183.747 202.287C182.083 202.88 180.629 204.035 179.524 205.498C178.419 206.962 177.647 208.726 177.147 210.569L177.181 210.372C177.011 212.094 177.153 213.947 177.386 215.784C177.619 217.622 177.968 219.48 178.346 221.332C178.384 221.498 178.388 221.669 178.358 221.837C178.328 222.004 178.266 222.164 178.174 222.306C178.082 222.449 177.962 222.572 177.822 222.668C177.681 222.763 177.524 222.83 177.357 222.864C177.191 222.898 177.019 222.899 176.853 222.866C176.686 222.833 176.528 222.767 176.387 222.672C176.246 222.577 176.126 222.454 176.033 222.312C175.94 222.17 175.876 222.011 175.846 221.844C175.461 219.956 175.107 218.051 174.855 216.108C174.603 214.166 174.442 212.182 174.643 210.1C174.649 210.039 174.659 209.978 174.675 209.918L174.679 209.903C175.246 207.815 176.131 205.756 177.485 203.957C178.838 202.158 180.691 200.659 182.889 199.879C185.097 199.105 187.498 199.078 189.723 199.801C191.919 200.502 193.856 201.837 195.34 203.501C196.076 204.331 196.721 205.238 197.266 206.205C197.794 207.161 198.239 208.16 198.596 209.192C199.29 211.22 199.715 213.33 199.86 215.469C200.013 217.584 199.916 219.691 199.676 221.765C199.415 223.828 199.006 225.869 198.454 227.873C198.409 228.031 198.306 228.166 198.165 228.25C198.025 228.334 197.857 228.361 197.697 228.324C197.537 228.288 197.397 228.192 197.306 228.055C197.215 227.919 197.18 227.753 197.209 227.591L197.212 227.589Z" fill="#C3CAD9"/>
<path d="M205.937 169.138L210.028 167.748C210.174 167.699 210.333 167.704 210.477 167.762C210.62 167.82 210.737 167.927 210.808 168.065C210.879 168.202 210.898 168.36 210.862 168.511C210.826 168.661 210.738 168.793 210.612 168.884L207.106 171.407C206.968 171.506 206.812 171.577 206.647 171.616C206.482 171.654 206.311 171.66 206.143 171.633C205.976 171.605 205.815 171.545 205.671 171.455C205.527 171.366 205.401 171.249 205.302 171.111C205.204 170.973 205.133 170.817 205.094 170.652C205.055 170.487 205.05 170.315 205.077 170.148C205.105 169.98 205.165 169.82 205.254 169.676C205.344 169.531 205.461 169.406 205.599 169.307C205.703 169.235 205.817 169.178 205.937 169.138Z" fill="#C3CAD9"/>
<path d="M169.847 192.546L167.046 195.091C166.933 195.194 166.787 195.253 166.634 195.259C166.481 195.264 166.332 195.216 166.211 195.121C166.091 195.027 166.008 194.894 165.976 194.744C165.945 194.594 165.968 194.439 166.04 194.304L167.836 190.973C167.917 190.824 168.026 190.691 168.158 190.584C168.29 190.477 168.442 190.396 168.605 190.348C168.767 190.299 168.938 190.283 169.107 190.3C169.277 190.317 169.441 190.368 169.59 190.448C169.74 190.529 169.872 190.638 169.98 190.77C170.087 190.902 170.167 191.054 170.216 191.217C170.265 191.38 170.281 191.55 170.264 191.72C170.247 191.889 170.196 192.053 170.116 192.203C170.046 192.331 169.955 192.448 169.847 192.546Z" fill="#C3CAD9"/>
<path d="M175.799 199.78L171.517 200.349C171.364 200.37 171.208 200.335 171.078 200.251C170.949 200.166 170.854 200.038 170.811 199.889C170.768 199.74 170.78 199.581 170.845 199.44C170.91 199.3 171.023 199.187 171.164 199.123L175.092 197.326C175.4 197.202 175.745 197.202 176.053 197.325C176.362 197.448 176.611 197.685 176.749 197.987C176.888 198.29 176.904 198.633 176.796 198.947C176.687 199.261 176.461 199.521 176.166 199.674C176.049 199.726 175.926 199.762 175.799 199.78Z" fill="#C3CAD9"/>
<path d="M210.898 176.433L213.895 173.78C214.01 173.679 214.157 173.621 214.311 173.618C214.464 173.615 214.614 173.667 214.733 173.765C214.851 173.862 214.932 173.998 214.959 174.149C214.987 174.301 214.959 174.456 214.882 174.589L212.873 178.051C212.701 178.347 212.418 178.563 212.086 178.651C211.755 178.739 211.402 178.692 211.105 178.519C210.809 178.347 210.593 178.064 210.505 177.733C210.417 177.401 210.464 177.048 210.637 176.752C210.707 176.633 210.795 176.525 210.898 176.433Z" fill="#C3CAD9"/>
<path d="M207.552 207.104L210.319 208.723C210.449 208.799 210.548 208.917 210.6 209.058C210.653 209.199 210.655 209.353 210.606 209.495C210.558 209.637 210.461 209.758 210.334 209.838C210.206 209.917 210.055 209.95 209.906 209.93L206.727 209.52C206.392 209.467 206.089 209.286 205.885 209.014C205.681 208.743 205.592 208.402 205.635 208.065C205.679 207.728 205.852 207.421 206.119 207.21C206.385 206.999 206.723 206.901 207.061 206.936C207.234 206.959 207.401 207.016 207.552 207.104Z" fill="#C3CAD9"/>
<path d="M207.052 215.843L209.74 215.37C209.885 215.344 210.035 215.368 210.165 215.438C210.296 215.508 210.398 215.619 210.457 215.755C210.516 215.89 210.527 216.041 210.49 216.184C210.452 216.327 210.367 216.453 210.249 216.541L208.069 218.184C207.791 218.384 207.445 218.467 207.106 218.415C206.767 218.363 206.461 218.181 206.255 217.907C206.048 217.633 205.957 217.289 206.001 216.949C206.045 216.609 206.22 216.3 206.489 216.087C206.655 215.963 206.848 215.879 207.052 215.843Z" fill="#C3CAD9"/>
<path d="M187.459 219.048C184.815 219.94 182.387 219.625 181.447 216.838C180.508 214.051 181.887 211.066 184.533 210.176C187.179 209.286 190.083 210.821 191.023 213.609C191.964 216.397 190.104 218.156 187.459 219.048Z" fill="#C3CAD9"/>
<path d="M180.86 209.294C181.398 209.993 182.435 210.096 183.177 209.525C183.919 208.954 184.084 207.925 183.547 207.227C183.009 206.528 181.972 206.425 181.23 206.996C180.489 207.567 180.323 208.596 180.86 209.294Z" fill="#C3CAD9"/>
<path d="M186.723 207.336C187.881 207.535 188.94 206.991 189.089 206.123C189.238 205.254 188.42 204.389 187.262 204.19C186.104 203.992 185.044 204.536 184.896 205.404C184.747 206.273 185.565 207.138 186.723 207.336Z" fill="#C3CAD9"/>
<path d="M190.251 210.031C190.789 210.73 191.791 210.86 192.489 210.322C193.188 209.785 193.318 208.783 192.781 208.084C192.243 207.386 191.241 207.255 190.543 207.793C189.844 208.331 189.714 209.333 190.251 210.031Z" fill="#C3CAD9"/>
<path d="M226.778 175.166C210.466 185.828 199.464 170.547 210.41 159.305C210.536 159.175 210.66 159.043 210.782 158.91C208.421 178.907 226.386 167.876 233.608 152.984C234.856 150.413 235.78 147.727 236.231 145.07L237.371 147.172C238.499 149.254 238.948 151.638 238.652 153.989L238.193 157.644C236.978 163.621 232.776 169.98 228.095 174.076C227.664 174.462 227.219 174.826 226.778 175.166Z" fill="#C3CAD9"/>
<path d="M234.459 166.541C234.459 166.541 240.176 174.171 240.458 180.949C240.458 180.949 230.702 181.394 225.737 188.001L227.201 175.245L234.459 166.541Z" fill="#C3CAD9"/>
<path d="M251.923 232.867C212.655 260.832 179.867 243.477 176.2 217.224L176.815 216.085C179.939 223.49 185.746 228.395 193.022 231.034C193.779 231.303 194.61 231.273 195.346 230.948C196.081 230.624 196.663 230.03 196.975 229.29C198.635 225.375 198.865 220.554 198.229 215.166L204.414 212.924L205.059 213.08C204.715 209.849 206.177 206.592 209.626 204.915C202.106 216.151 227.851 219.254 236.188 208.438C237.27 207.036 238.553 205.799 240.084 204.91C241.293 204.209 242.773 203.517 244.319 203.188C247.603 202.486 251.186 203.417 253.095 209.366C253.127 209.477 253.175 209.582 253.239 209.677C254.304 211.44 256.786 211.688 258.166 210.159C266.575 200.844 272.372 188.992 273.197 175.062C273.201 175.066 273.205 175.07 273.208 175.075C274.966 181.562 275.458 188.327 274.657 195.001C272.857 210.261 264.435 223.953 251.923 232.867Z" fill="#C3CAD9"/>
<path d="M217.013 250.735L217.049 250.881C217.003 250.856 217.013 250.735 217.013 250.735Z" fill="#C3CAD9"/>
<path d="M292.261 294.778C290.207 297.459 287.039 299.064 283.665 299.327C276.783 299.866 270.598 298.499 265.281 295.922C253.439 290.191 245.874 278.472 244.381 268.506C242.727 251.705 241.206 244.58 228.129 244.862L248.419 233.208C251.663 235.56 253.374 240.879 254.775 244.262L254.771 244.265C246.011 249.562 249.14 256.078 249.14 256.078C255.731 306.685 289.777 294.141 289.59 280.536C294.401 284.093 295.957 289.946 292.261 294.778Z" fill="#C3CAD9"/>
<path d="M186.346 145.512C186.346 145.512 186.338 145.518 186.331 145.524L186.346 145.512Z" fill="#C3CAD9"/>
</g>
<path d="M268.579 299.01C261.697 299.548 255.512 298.182 250.195 295.605C238.353 289.873 230.788 278.154 229.295 268.188C227.641 251.388 226.12 244.263 213.043 244.545L232.655 235.369C235.899 237.72 238.287 240.559 239.688 243.943L239.684 243.945C240.872 246.822 241.351 250.094 241.036 253.809C240.75 257.219 241.093 260.661 242.261 263.874C245.056 271.559 249.979 276.394 257.984 277.09L257.987 277.093C258.949 277.175 259.915 277.201 260.88 277.17C266.496 276.451 271.244 277.806 274.501 280.218C279.315 283.773 280.871 289.625 277.174 294.457C275.119 297.139 271.952 298.744 268.579 299.01Z" fill="white"/>
<path d="M236.836 232.548C197.568 260.513 164.78 243.158 161.113 216.905C160.79 214.592 160.694 212.252 160.827 209.92C157.463 196.277 151.9 183.516 143.449 171.899C142.049 169.975 140.568 168.081 139.006 166.217C131.038 166.155 122.469 163.524 113.613 159.677C109.581 157.915 106.403 154.64 104.763 150.557C102.61 145.24 100.892 140.134 99.8479 135.365C99.5926 134.203 99.3769 133.058 99.2043 131.94C92.6196 127.94 87.3628 122.637 83.2198 116.241C82.6823 115.405 82.4953 114.391 82.6992 113.419C82.903 112.446 83.4814 111.593 84.3093 111.043C88.4087 108.312 92.719 106.636 97.2622 106.1C97.8561 106.025 98.4591 105.974 99.0637 105.943C102.866 93.6358 110.217 84.1328 121.224 77.527C120.631 70.8616 120.951 64.1465 122.175 57.5677C122.791 54.2591 126.092 52.1918 129.368 52.9666C137.755 54.948 145.345 59.5923 152.32 66.3055C162.304 68.9247 172.059 72.0975 181.27 76.5801C183.294 77.5596 185.1 78.9367 186.58 80.6292C188.061 82.3218 189.185 84.2951 189.887 86.4316C190.17 87.2932 190.43 88.1556 190.683 89.0195C190.686 89.0243 190.688 89.0296 190.69 89.035C194.125 100.937 194.739 113.072 193.48 125.369C224.755 129.183 251.121 148.904 258.116 174.759C259.874 181.246 260.366 188.011 259.566 194.685C257.769 209.942 249.348 223.634 236.836 232.548Z" fill="white"/>
<g opacity="0.66">
<path d="M85.2654 114.203C84.8194 114.499 84.4414 114.886 84.1566 115.338C83.8718 115.791 83.6866 116.3 83.6134 116.83C83.4807 116.636 83.3549 116.437 83.2257 116.241C82.6882 115.405 82.5012 114.392 82.7051 113.419C82.9089 112.446 83.4873 111.593 84.3152 111.044C88.4146 108.313 92.7249 106.637 97.2681 106.101C97.2715 106.098 97.2715 106.098 97.2749 106.095C97.4713 106.068 97.6759 106.044 97.8767 106.03C97.9719 106.021 98.067 106.012 98.1588 106.005C98.4617 105.975 98.7554 105.96 99.0636 105.943C102.867 93.6359 110.217 84.133 121.224 77.5271C121.987 79.3982 121.385 81.5664 119.736 82.7323C111.339 88.6658 105.567 96.8408 102.18 107.055C102.015 107.547 101.733 107.991 101.357 108.349C100.981 108.707 100.523 108.967 100.023 109.108C94.8133 109.37 89.9048 111.112 85.2654 114.203Z" fill="white"/>
</g>
<g opacity="0.66">
<path d="M161.781 213.077C161.574 216.639 161.906 220.213 162.766 223.676C161.241 219.399 160.557 214.749 160.824 209.921C160.448 208.391 160.041 206.872 159.604 205.363C160.416 207.9 161.142 210.472 161.781 213.077Z" fill="white"/>
</g>
<g opacity="0.66">
<path d="M189.887 86.4313C193.349 97.0831 194.478 107.93 193.965 118.912C194.045 109.331 192.805 99.8637 189.774 90.5461C189.073 88.4091 187.949 86.4352 186.468 84.7426C184.987 83.0499 183.18 81.6731 181.155 80.6944C171.945 76.2113 162.194 73.0371 152.206 70.4198C145.231 63.7073 137.64 59.0623 129.257 57.0784C125.982 56.303 122.681 58.3703 122.062 61.6822C121.485 64.7643 121.111 67.8809 120.941 71.0119C120.933 66.5012 121.345 61.9995 122.174 57.5654C122.79 54.2568 126.09 52.1895 129.367 52.9643C137.753 54.9457 145.343 59.59 152.319 66.3032C162.303 68.9224 172.058 72.0952 181.268 76.5778C183.293 77.5574 185.099 78.9347 186.58 80.6276C188.061 82.3205 189.186 84.2944 189.887 86.4313Z" fill="white"/>
</g>
<g opacity="0.66">
<path d="M259.824 191.882C259.425 159.835 229.711 133.916 193.366 129.484C193.507 128.119 193.623 126.757 193.712 125.4C231.491 130.103 262.044 158.028 259.824 191.882Z" fill="white"/>
</g>
<path d="M150.377 161.225C135.276 161.996 122.025 147.038 124.996 129.234C125.231 127.837 125.182 126.408 124.852 125.031C124.522 123.654 123.918 122.357 123.076 121.219C115.558 111.074 120.322 104.476 131.587 109.01C133.929 109.953 136.54 109.986 138.906 109.102C166.774 98.6315 180.728 120.374 180.141 136.171C170.09 148.616 160.033 161.324 150.377 161.225Z" fill="white"/>
<g opacity="0.3">
<path d="M143.45 171.898C142.05 169.974 140.569 168.08 139.007 166.217C131.039 166.154 122.47 163.523 113.614 159.676C109.582 157.914 106.404 154.639 104.764 150.556C102.611 145.239 100.893 140.134 99.8487 135.364C112.036 161.027 141.251 150.649 149.31 147.545C167.006 136.79 185.449 109.352 188.743 85.1163C188.743 85.1163 189.323 84.9492 189.327 84.9614C192.763 96.8631 194.736 113.069 193.478 125.367C193.478 125.367 185.775 136.756 179.933 141.025C174.128 145.272 143.816 171.579 143.45 171.898Z" fill="#1F2A43"/>
</g>
<path d="M105.71 155.611C104.672 154.262 103.823 152.778 103.185 151.2C100.344 144.184 98.5299 138.215 97.6486 132.984C91.3559 129.024 86.0221 123.703 81.7915 117.17C80.1729 114.668 80.8787 111.285 83.3647 109.629C87.9503 106.575 92.7964 104.798 97.7934 104.333C101.711 92.4775 108.988 83.1639 119.443 76.6244C118.96 70.1503 119.315 63.6411 120.499 57.2579C120.683 56.2579 121.07 55.3061 121.636 54.4612C122.201 53.6164 122.934 52.8965 123.789 52.3458C124.663 51.7802 125.642 51.397 126.668 51.2192C127.693 51.0414 128.744 51.0727 129.757 51.3112C137.937 53.2441 145.814 57.7716 153.176 64.7734C164.678 67.8108 173.851 71.0816 182.013 75.053C186.513 77.2412 189.973 81.1998 191.503 85.9075C195.307 97.6141 196.56 110.054 195.328 123.898C214.307 126.553 231.499 134.87 243.888 147.423C257.123 160.83 263.289 177.686 261.258 194.884C259.425 210.398 250.882 224.631 237.819 233.936C226.572 241.947 215.325 246.718 204.39 248.114C194.594 249.366 185.356 247.787 177.669 243.551C165.521 236.855 158.429 224.049 159.112 210.082C155.079 193.852 148.238 180.043 138.197 167.905C130.98 167.707 122.928 165.576 112.936 161.242C110.088 160.009 107.601 158.071 105.71 155.611ZM100.559 130.907C100.734 131.135 100.849 131.404 100.892 131.688C101.681 136.841 103.462 142.802 106.344 149.922C107.847 153.635 110.67 156.547 114.293 158.119C124.219 162.426 132.076 164.458 139.023 164.518C139.269 164.519 139.512 164.575 139.735 164.679C139.957 164.784 140.155 164.936 140.313 165.125C151.013 177.88 158.264 192.395 162.481 209.513C162.521 209.677 162.537 209.847 162.528 210.015C161.818 222.763 168.25 234.471 179.314 240.568C194.836 249.125 215.441 245.694 235.848 231.161C248.132 222.41 256.16 209.044 257.88 194.482C261.768 161.568 233.389 131.951 193.276 127.058C192.834 127.003 192.43 126.777 192.152 126.429C191.874 126.081 191.744 125.637 191.789 125.194C193.227 111.172 192.077 98.6648 188.271 86.9557C187.025 83.122 184.202 79.8975 180.529 78.1098C172.472 74.189 163.373 70.9609 151.891 67.9489C151.61 67.8752 151.352 67.7309 151.142 67.5296C144.031 60.69 136.784 56.4644 128.98 54.6197C128.415 54.4826 127.827 54.463 127.254 54.5619C126.681 54.6608 126.135 54.8763 125.648 55.1949C125.181 55.4963 124.78 55.8903 124.471 56.3526C124.161 56.8149 123.95 57.3357 123.85 57.8828C122.658 64.3107 122.345 70.8706 122.918 77.3828C122.946 77.7007 122.884 78.0202 122.739 78.3047C122.594 78.5891 122.372 78.8271 122.099 78.9914C111.569 85.3069 104.367 94.546 100.692 106.451C100.588 106.784 100.385 107.077 100.109 107.291C99.8338 107.505 99.4993 107.629 99.151 107.646C94.3583 107.891 89.6826 109.51 85.2511 112.462C84.7974 112.765 84.4803 113.233 84.3674 113.767C84.2545 114.3 84.3549 114.857 84.6471 115.318C88.7462 121.649 93.941 126.754 100.088 130.489C100.27 130.598 100.429 130.739 100.559 130.907Z" fill="#1F2A43"/>
<path d="M235.185 285.411C231.2 280.233 228.483 274.233 227.615 268.446C227.611 268.418 227.607 268.389 227.605 268.36C225.939 251.452 224.445 246.007 213.08 246.249C212.856 246.254 212.634 246.215 212.426 246.134C212.218 246.053 212.027 245.931 211.866 245.777C211.705 245.622 211.575 245.437 211.485 245.233C211.395 245.028 211.347 244.808 211.342 244.584C211.337 244.361 211.376 244.139 211.457 243.93C211.539 243.722 211.66 243.532 211.814 243.37C211.969 243.209 212.154 243.08 212.359 242.99C212.563 242.9 212.784 242.851 213.007 242.846C220.043 242.696 224.338 244.631 226.929 249.113C229.382 253.36 230.19 259.889 230.988 267.983C233.019 281.371 247.15 298.991 268.451 297.316C271.423 297.083 274.111 295.664 275.824 293.425C277.843 290.784 278.066 287.648 276.434 284.814C274.469 281.414 269.281 277.812 261.098 278.866C261.043 278.873 260.988 278.877 260.935 278.882C251.076 279.188 244.254 274.338 240.663 264.466C239.461 261.161 239.014 257.531 239.339 253.677C239.946 246.482 237.431 240.946 231.659 236.755C231.477 236.624 231.323 236.458 231.205 236.267C231.088 236.077 231.009 235.865 230.973 235.643C230.937 235.422 230.945 235.196 230.997 234.978C231.049 234.76 231.143 234.554 231.274 234.372C231.405 234.191 231.571 234.036 231.762 233.919C231.952 233.801 232.164 233.722 232.386 233.686C232.607 233.651 232.833 233.659 233.051 233.71C233.269 233.762 233.475 233.856 233.657 233.987C240.381 238.87 243.436 245.588 242.73 253.95C242.447 257.31 242.827 260.452 243.859 263.289C246.925 271.716 252.448 275.698 260.748 275.47C268.816 274.459 276.123 277.456 279.381 283.108C281.698 287.13 281.379 291.758 278.525 295.487C276.225 298.491 272.649 300.392 268.715 300.701C255.325 301.755 245.862 295.968 240.281 290.928C238.42 289.245 236.715 287.399 235.185 285.411Z" fill="#1F2A43"/>
<path d="M141.165 67.5069C136.834 69.0065 132.641 71.3924 128.525 74.281C125.638 60.5277 128.636 56.3022 141.165 67.5069Z" fill="#FF0083"/>
<g opacity="0.3">
<path d="M141.165 67.5075C139.888 67.9516 138.636 68.4621 137.412 69.0369C132.33 64.9217 129.153 63.8928 127.546 65.4037C127.924 59.3723 131.985 59.2974 141.165 67.5075Z" fill="#1F2A43"/>
</g>
<path d="M98.1519 114.525C86.4944 113.951 86.3628 117.035 97.757 123.778L98.1519 114.525Z" fill="#FF0083"/>
<g opacity="0.3">
<path d="M98.008 117.923C94.2438 117.797 91.819 118.095 90.7337 118.818C87.4148 115.551 89.8871 114.12 98.1505 114.523L98.008 117.923Z" fill="#1F2A43"/>
</g>
<path d="M127.682 74.9307C127.584 74.8039 127.517 74.6568 127.484 74.5002C125.787 66.4138 126.175 61.9658 128.706 60.5027C131.284 59.0126 135.469 60.986 141.874 66.7147C142.013 66.8382 142.116 66.9957 142.175 67.1716C142.234 67.3476 142.245 67.5358 142.209 67.7176C142.173 67.8995 142.089 68.0686 141.967 68.2083C141.845 68.348 141.689 68.4533 141.513 68.5139C137.64 69.855 133.591 72.0263 129.137 75.1533C128.912 75.3104 128.636 75.375 128.365 75.3336C128.094 75.2921 127.849 75.1478 127.682 74.9307ZM139.121 67.135C132.713 61.6846 130.457 61.9491 129.77 62.3449C129.098 62.7333 127.774 64.4998 129.255 72.4898C132.726 70.1585 135.98 68.3927 139.121 67.135Z" fill="#1F2A43"/>
<path d="M89.1382 118.619C88.3346 117.574 88.0864 116.66 88.3382 115.821C88.9281 113.856 91.8788 113.15 98.2045 113.462C98.4851 113.475 98.749 113.6 98.9383 113.807C99.1277 114.015 99.2271 114.289 99.2148 114.57L98.8194 123.823C98.8116 124.006 98.7563 124.185 98.6589 124.341C98.5615 124.497 98.4253 124.625 98.2636 124.713C98.1019 124.8 97.9202 124.845 97.7363 124.841C97.5524 124.838 97.3726 124.786 97.2143 124.693C93.0216 122.212 90.3957 120.253 89.1382 118.619ZM97.0434 115.544C90.8826 115.354 90.3794 116.421 90.3775 116.436C90.3756 116.45 90.0734 117.776 96.772 121.939L97.0434 115.544Z" fill="#1F2A43"/>
<path d="M144.757 95.7619C143.66 96.3886 142.658 96.9601 141.781 97.6295C140.92 98.2755 140.154 99.0394 139.506 99.8986C138.848 100.796 138.291 101.763 137.847 102.783C137.364 103.836 136.962 104.971 136.495 106.154L136.49 106.167C136.437 106.302 136.34 106.416 136.215 106.491C136.091 106.566 135.945 106.597 135.8 106.58C135.656 106.563 135.521 106.499 135.417 106.397C135.313 106.295 135.246 106.162 135.226 106.018C135.042 104.675 135.101 103.309 135.401 101.987C135.706 100.599 136.291 99.2876 137.118 98.1322C137.968 96.9426 139.103 95.9858 140.419 95.35C141.681 94.7324 143.079 94.4456 144.483 94.5164C144.625 94.525 144.761 94.5792 144.87 94.671C144.979 94.7627 145.055 94.8871 145.088 95.0257C145.121 95.1643 145.108 95.3097 145.052 95.4406C144.995 95.5714 144.898 95.6806 144.775 95.752L144.757 95.7619Z" fill="#1F2A43"/>
<path d="M120.821 124.232C119.888 125.159 118.973 126.013 118.162 126.909C117.351 127.805 116.637 128.719 116.09 129.699C115.545 130.674 115.137 131.719 114.878 132.805C114.603 133.911 114.486 135.097 114.371 136.399L114.369 136.414C114.357 136.557 114.299 136.691 114.203 136.798C114.108 136.905 113.981 136.978 113.841 137.006C113.7 137.035 113.555 137.017 113.425 136.956C113.296 136.895 113.19 136.793 113.123 136.667C112.458 135.414 112.155 133.954 112.22 132.465C112.294 130.958 112.745 129.493 113.529 128.204C114.287 126.953 115.286 125.866 116.47 125.007C117.593 124.178 118.847 123.543 120.181 123.129C120.321 123.086 120.471 123.092 120.607 123.144C120.744 123.197 120.859 123.293 120.934 123.419C121.01 123.544 121.041 123.691 121.023 123.836C121.005 123.981 120.939 124.116 120.835 124.22L120.821 124.232Z" fill="#1F2A43"/>
<path d="M135.174 117.34C136.71 121.586 135.005 123.444 130.06 122.914C129.849 122.893 129.648 122.815 129.478 122.69C129.307 122.565 129.173 122.397 129.088 122.203C129.004 122.009 128.973 121.796 128.999 121.586C129.024 121.376 129.105 121.176 129.233 121.008C130.514 119.324 131.869 117.877 133.338 116.801C133.487 116.689 133.659 116.614 133.842 116.581C134.025 116.548 134.213 116.558 134.391 116.611C134.569 116.663 134.733 116.756 134.869 116.883C135.004 117.009 135.109 117.166 135.174 117.34Z" fill="#1F2A43"/>
<path d="M203.947 207.606C232.329 142.363 176.506 112.392 158.917 157.203C108.562 163.74 141.462 235.917 203.947 207.606Z" fill="#FF0083"/>
<g opacity="0.3">
<path d="M203.947 207.609C167.005 224.344 138.941 202.32 133.771 183.133C142.88 190.847 155.055 197.335 171.222 195.198C181.375 193.856 189.962 186.962 193.518 177.357C198.936 162.718 201.308 150.468 198.306 140.851C211.144 150.724 218.272 174.672 203.947 207.609Z" fill="#1F2A43"/>
</g>
<g opacity="0.66">
<path d="M181.743 140.013C181.352 144.056 175.344 148.363 171.245 145.204C171.252 145.198 171.255 145.196 171.258 145.193L171.245 145.204C168.943 147.125 166.791 149.56 164.853 152.533C162.425 156.265 160.711 160.413 159.644 164.735L158.63 168.845C158.612 168.917 158.569 168.981 158.51 169.024C158.45 169.068 158.377 169.09 158.303 169.086C158.229 169.081 158.159 169.051 158.105 169.001C158.051 168.95 158.016 168.882 158.006 168.809L157.597 165.709L158.457 161.268C138.306 164.797 132.716 179.483 137.699 193.017C129.896 178.121 135.069 160.297 158.92 157.201C170.62 127.397 199.236 130.674 208.732 155.415C202.737 143.643 192.008 137.949 181.743 140.013Z" fill="white"/>
</g>
<path d="M139.735 198.96C133.622 191.016 131.31 181.506 133.819 173.275C136.681 163.877 145.204 157.708 157.857 155.846C162.866 143.67 171.321 135.935 181.153 134.573C189.885 133.365 198.724 137.384 204.839 145.331L204.98 145.513C210.008 152.142 212.884 160.949 213.294 170.977C213.763 182.427 211.079 194.951 205.315 208.199C205.168 208.537 204.9 208.809 204.564 208.962C192.449 214.451 180.745 216.579 169.781 215.286C160.285 214.168 151.725 210.465 145.023 204.581C143.083 202.883 141.312 201 139.735 198.96ZM202.475 147.151C197.02 140.063 189.215 136.467 181.557 137.527C172.607 138.764 164.861 146.138 160.301 157.749C160.204 157.997 160.042 158.215 159.832 158.379C159.622 158.543 159.371 158.648 159.107 158.682C147.202 160.228 139.232 165.718 136.665 174.145C133.87 183.318 137.921 194.388 146.985 202.347C160.72 214.404 181.552 215.94 202.808 206.486C212.923 182.913 212.851 160.828 202.602 147.317L202.475 147.151Z" fill="#1F2A43"/>
<path d="M160.181 157.403L158.138 166.401C158.102 166.558 158.007 166.696 157.873 166.786C157.74 166.876 157.577 166.913 157.417 166.888C157.258 166.863 157.113 166.779 157.013 166.653C156.913 166.526 156.865 166.366 156.877 166.205L157.659 157.012C157.664 156.838 157.705 156.668 157.778 156.51C157.852 156.353 157.957 156.212 158.086 156.097C158.216 155.981 158.368 155.894 158.533 155.839C158.697 155.784 158.871 155.763 159.044 155.777C159.217 155.792 159.386 155.841 159.539 155.923C159.692 156.004 159.827 156.116 159.936 156.252C160.045 156.387 160.125 156.543 160.171 156.711C160.217 156.878 160.229 157.053 160.206 157.225C160.202 157.285 160.193 157.344 160.181 157.403Z" fill="#1F2A43"/>
<path d="M211.69 174.847C195.379 185.508 184.377 170.228 195.323 158.986C195.448 158.856 195.572 158.724 195.695 158.591C196.113 158.145 196.526 157.693 196.918 157.242C201.385 152.174 204.313 146.877 204.564 141.176L218.516 152.668L223.202 156.525L223.244 156.558C223.204 156.814 223.156 157.071 223.101 157.328C221.885 163.305 217.684 169.664 213.003 173.76C212.577 174.143 212.132 174.507 211.69 174.847Z" fill="white"/>
<path d="M211.691 174.847C195.379 185.509 184.377 170.229 195.323 158.986C195.878 158.409 196.409 157.829 196.917 157.244C205.358 152.208 215.659 163.239 213.005 173.76C212.577 174.143 212.132 174.507 211.691 174.847Z" fill="white"/>
<path d="M205.207 141.204C205.234 142.476 205.134 143.748 204.909 145.001C204.656 146.252 204.304 147.48 203.856 148.675C203.392 149.859 202.848 151.01 202.227 152.12C201.603 153.218 200.916 154.279 200.172 155.3C199.427 156.308 198.658 157.308 197.817 158.232C197.406 158.702 196.979 159.159 196.549 159.615L195.363 160.898C193.909 162.624 192.807 164.637 192.391 166.78C191.988 168.914 192.265 171.151 193.319 172.985C194.353 174.83 196.158 176.166 198.215 176.758C199.261 177.068 200.35 177.204 201.44 177.161L201.853 177.157L202.269 177.114C202.545 177.082 202.822 177.068 203.097 177.02C203.647 176.909 204.203 176.835 204.746 176.664C206.935 176.079 209.038 175.052 210.977 173.754L210.898 173.815C212.272 172.714 213.565 171.515 214.764 170.226C215.994 168.938 217.122 167.557 218.137 166.094C219.144 164.624 220.077 163.094 220.838 161.481C221.599 159.867 222.229 158.194 222.621 156.454C222.655 156.293 222.75 156.152 222.886 156.06C223.022 155.968 223.188 155.931 223.35 155.958C223.512 155.985 223.657 156.073 223.756 156.204C223.855 156.335 223.899 156.5 223.88 156.663C223.66 158.558 223.199 160.417 222.509 162.196C221.832 163.973 220.993 165.685 220.003 167.309C219.012 168.936 217.896 170.483 216.665 171.936C215.414 173.396 214.012 174.72 212.484 175.886L212.465 175.9C212.445 175.915 212.423 175.932 212.404 175.947C210.263 177.316 207.928 178.463 205.408 179.142C204.784 179.335 204.128 179.43 203.483 179.556C203.158 179.609 202.824 179.629 202.494 179.665L201.999 179.714L201.498 179.721C200.146 179.77 198.794 179.599 197.496 179.215C196.171 178.831 194.928 178.207 193.829 177.374C192.721 176.53 191.795 175.471 191.107 174.26C189.715 171.844 189.379 168.947 189.887 166.303C190.154 164.99 190.594 163.718 191.197 162.52L191.664 161.644C191.832 161.359 192.019 161.088 192.194 160.809L192.461 160.393L192.757 160.001L193.35 159.218L193.996 158.488C194.213 158.242 194.431 158.002 194.627 157.794C195.033 157.36 195.436 156.926 195.826 156.476C196.61 155.582 197.385 154.689 198.11 153.753C198.835 152.817 199.525 151.867 200.166 150.884C200.797 149.9 201.374 148.881 201.893 147.833C202.93 145.732 203.619 143.476 203.935 141.154L203.935 141.144C203.956 140.984 204.037 140.838 204.16 140.735C204.284 140.632 204.443 140.58 204.603 140.588C204.764 140.596 204.916 140.665 205.028 140.781C205.141 140.896 205.205 141.05 205.21 141.211L205.207 141.204Z" fill="#1F2A43"/>
<path d="M147.971 212.16C144.397 209.873 141.104 205.728 139.471 201.905C138.725 200.147 138.682 198.169 139.351 196.38C140.021 194.591 141.351 193.128 143.068 192.291C156.145 185.901 165.881 197.302 158.499 209.63C156.303 213.297 151.576 214.461 147.971 212.16Z" fill="white"/>
<g opacity="0.3">
<path d="M147.968 212.158C144.394 209.873 141.101 205.727 139.47 201.904C138.949 200.681 138.765 199.341 138.938 198.023C139.111 196.705 139.633 195.458 140.452 194.41C140.504 194.569 140.565 194.726 140.633 194.883C142.269 198.703 145.561 202.849 149.134 205.135C152.734 207.439 157.468 206.272 159.659 202.604C160.164 201.762 160.607 200.885 160.984 199.978C161.273 202.887 160.538 206.223 158.499 209.629C156.3 213.295 151.575 214.461 147.968 212.158Z" fill="#1F2A43"/>
</g>
<path d="M141.473 207.751C140.18 206.072 139.079 204.239 138.297 202.406C137.419 200.347 137.366 198.03 138.15 195.933C138.933 193.836 140.493 192.121 142.505 191.142C148.943 187.997 155.354 188.672 159.239 192.902C163.192 197.21 163.336 204.035 159.594 210.283C158.988 211.309 158.18 212.202 157.219 212.907C156.259 213.612 155.166 214.116 154.006 214.387C152.865 214.659 151.682 214.697 150.526 214.499C149.371 214.301 148.268 213.871 147.283 213.235C145.211 211.909 143.175 209.963 141.473 207.751ZM157.844 195.206C157.692 195.008 157.529 194.815 157.359 194.629C154.269 191.265 149.007 190.807 143.627 193.435C142.203 194.127 141.099 195.34 140.544 196.823C139.988 198.306 140.024 199.946 140.644 201.403C142.245 205.151 145.465 209.042 148.658 211.084C149.356 211.535 150.137 211.84 150.955 211.98C151.773 212.121 152.611 212.095 153.419 211.903C154.246 211.709 155.026 211.349 155.71 210.846C156.395 210.342 156.97 209.705 157.402 208.973C160.381 203.999 160.524 198.692 157.842 195.207L157.844 195.206Z" fill="#1F2A43"/>
<path d="M223.847 219.946C223.506 219.811 223.164 219.693 222.817 219.584L222.811 219.583C220.385 218.825 217.829 218.698 215.187 218.964C211.772 219.305 208.218 220.317 204.631 221.488C190.027 223.924 185.589 208.947 194.542 204.597C196.771 203.509 199.837 203.083 203.784 203.756C203.956 203.784 204.128 203.818 204.3 203.847C204.208 203.225 204.152 202.599 204.135 201.971C203.732 189.337 218.115 177.419 234.101 179.689C234.87 179.795 235.641 179.937 236.415 180.114L229.234 202.87L223.933 219.675L223.847 219.946Z" fill="white"/>
<g opacity="0.66">
<path d="M205.608 208.274L204.13 201.975C203.727 189.34 218.11 177.422 234.097 179.692L234.409 179.956C216.138 183.912 205.861 192.927 205.608 208.274Z" fill="white"/>
</g>
<path d="M215.188 218.965C211.773 219.306 208.218 220.317 204.632 221.488C186.384 224.528 184.006 200.397 203.784 203.755L206.836 211.913C206.836 211.913 208.808 216.571 214.138 218.374C214.626 218.541 214.968 218.74 215.188 218.965Z" fill="white"/>
<path d="M236.274 180.736C232.529 180.189 228.756 180.288 225.143 181.073C223.338 181.465 221.575 182.028 219.876 182.754C218.187 183.483 216.569 184.367 215.043 185.394C212.016 187.454 209.352 190.12 207.605 193.309C205.849 196.474 205.036 200.138 205.559 203.663C205.588 203.859 205.571 204.06 205.509 204.249C205.446 204.438 205.341 204.61 205.2 204.751C205.06 204.892 204.888 204.998 204.7 205.061C204.511 205.124 204.31 205.142 204.113 205.114L204.059 205.105L202.912 204.931L202.339 204.843L201.764 204.802C201.383 204.778 201 204.738 200.619 204.727L199.487 204.743C197.988 204.82 196.52 205.105 195.234 205.705C193.948 206.304 192.857 207.207 192.148 208.37C191.457 209.563 191.134 210.933 191.216 212.309C191.33 213.717 191.802 215.072 192.588 216.246C193.366 217.433 194.469 218.401 195.733 219.093C197.025 219.792 198.443 220.23 199.904 220.382C201.389 220.544 202.909 220.455 204.422 220.232L204.238 220.276C205.809 219.76 207.389 219.232 209.012 218.809C210.65 218.39 212.318 218.098 214.002 217.936C215.695 217.763 217.422 217.735 219.133 217.952C220.848 218.145 222.52 218.618 224.083 219.351C224.228 219.421 224.342 219.543 224.401 219.693C224.461 219.843 224.461 220.009 224.403 220.16C224.345 220.31 224.232 220.433 224.087 220.503C223.942 220.574 223.776 220.587 223.621 220.541C222.121 220.095 220.566 219.859 219.001 219.839C217.432 219.832 215.865 219.971 214.32 220.252C212.765 220.525 211.231 220.95 209.682 221.356C208.134 221.761 206.579 222.204 205.033 222.706L205.013 222.713C204.958 222.73 204.903 222.743 204.847 222.751C203.135 223.007 201.381 223.11 199.617 222.92C197.825 222.73 196.088 222.19 194.504 221.33C192.913 220.457 191.49 219.213 190.474 217.67C189.436 216.122 188.816 214.331 188.673 212.472C188.559 210.574 189.011 208.683 189.974 207.043C190.966 205.41 192.495 204.158 194.161 203.386C195.826 202.615 197.627 202.278 199.378 202.188L200.69 202.169C201.124 202.183 201.554 202.226 201.989 202.257L202.634 202.304L203.269 202.4L204.54 202.594L203.041 204.036C202.745 201.974 202.809 199.877 203.231 197.837C203.653 195.819 204.374 193.876 205.369 192.071C206.35 190.281 207.552 188.623 208.948 187.135C210.328 185.648 211.872 184.322 213.55 183.183C216.9 180.905 220.708 179.387 224.707 178.734C228.665 178.09 232.718 178.349 236.563 179.492C236.718 179.538 236.85 179.642 236.932 179.781C237.014 179.921 237.04 180.086 237.005 180.244C236.97 180.402 236.877 180.541 236.743 180.633C236.61 180.725 236.447 180.762 236.286 180.738L236.274 180.736Z" fill="#1F2A43"/>
<path d="M205.522 203.484L206.598 209.346C206.625 209.501 206.595 209.662 206.512 209.796C206.429 209.931 206.3 210.03 206.148 210.075C205.997 210.12 205.834 210.108 205.691 210.04C205.548 209.973 205.435 209.855 205.373 209.71L203.074 204.21C203.005 204.053 202.968 203.885 202.965 203.714C202.961 203.543 202.992 203.373 203.056 203.215C203.119 203.056 203.213 202.911 203.333 202.79C203.453 202.668 203.596 202.571 203.754 202.505C203.911 202.439 204.08 202.405 204.251 202.406C204.422 202.406 204.591 202.441 204.749 202.507C204.906 202.574 205.049 202.671 205.168 202.794C205.287 202.916 205.381 203.061 205.444 203.22C205.479 203.305 205.505 203.393 205.522 203.484Z" fill="#1F2A43"/>
<path d="M182.747 227.413C189.248 199.233 165.595 192.2 160.827 209.919L160.871 214.647" fill="#C3CAD9"/>
<path d="M183.152 211.022C182.497 235.635 161.211 227.581 160.88 212.16C162.456 201.397 174.267 192.237 183.152 211.022Z" fill="white"/>
<path d="M182.125 227.269C182.848 223.307 183.177 219.267 182.67 215.36C182.449 213.427 181.974 211.531 181.259 209.721C180.543 207.943 179.552 206.303 178.309 204.937C177.066 203.571 175.557 202.47 173.856 201.921C172.166 201.362 170.339 201.379 168.66 201.968C166.996 202.561 165.542 203.716 164.437 205.179C163.332 206.642 162.56 208.406 162.06 210.25L162.093 210.052C161.924 211.775 162.066 213.627 162.299 215.465C162.532 217.303 162.881 219.161 163.259 221.013C163.297 221.179 163.301 221.35 163.271 221.517C163.241 221.685 163.179 221.844 163.087 221.987C162.994 222.13 162.875 222.252 162.735 222.348C162.594 222.444 162.436 222.511 162.27 222.545C162.104 222.579 161.932 222.58 161.766 222.546C161.599 222.513 161.441 222.447 161.3 222.352C161.159 222.257 161.039 222.135 160.946 221.993C160.853 221.851 160.789 221.692 160.759 221.525C160.374 219.636 160.02 217.732 159.768 215.789C159.516 213.846 159.355 211.863 159.556 209.781C159.562 209.719 159.572 209.658 159.588 209.598L159.592 209.584C160.159 207.496 161.044 205.437 162.398 203.638C163.751 201.839 165.604 200.34 167.802 199.56C170.01 198.786 172.411 198.759 174.636 199.482C176.831 200.183 178.769 201.517 180.253 203.181C180.989 204.012 181.634 204.919 182.179 205.886C182.707 206.842 183.152 207.841 183.509 208.873C184.203 210.901 184.628 213.011 184.773 215.149C184.926 217.265 184.828 219.372 184.589 221.446C184.328 223.508 183.919 225.55 183.366 227.554C183.322 227.712 183.219 227.847 183.078 227.931C182.937 228.015 182.77 228.041 182.61 228.005C182.45 227.969 182.31 227.873 182.219 227.736C182.128 227.6 182.093 227.433 182.121 227.272L182.125 227.269Z" fill="#1F2A43"/>
<path d="M190.85 168.819L194.941 167.429C195.087 167.38 195.246 167.385 195.389 167.443C195.533 167.501 195.65 167.608 195.721 167.746C195.792 167.883 195.811 168.041 195.775 168.191C195.739 168.342 195.651 168.474 195.525 168.565L192.019 171.088C191.881 171.187 191.725 171.258 191.56 171.297C191.395 171.335 191.223 171.341 191.056 171.313C190.888 171.286 190.728 171.226 190.584 171.136C190.44 171.047 190.314 170.93 190.215 170.792C190.116 170.654 190.046 170.498 190.007 170.333C189.968 170.167 189.962 169.996 189.99 169.828C190.017 169.661 190.078 169.501 190.167 169.356C190.257 169.212 190.374 169.087 190.512 168.988C190.616 168.916 190.73 168.859 190.85 168.819Z" fill="#1F2A43"/>
<path d="M154.759 192.227L151.959 194.772C151.845 194.875 151.7 194.934 151.547 194.94C151.394 194.945 151.244 194.897 151.124 194.802C151.004 194.708 150.921 194.574 150.889 194.425C150.858 194.275 150.881 194.12 150.953 193.985L152.749 190.654C152.83 190.505 152.939 190.372 153.071 190.265C153.203 190.158 153.354 190.077 153.517 190.029C153.68 189.98 153.851 189.964 154.02 189.981C154.189 189.998 154.354 190.049 154.503 190.129C154.653 190.21 154.785 190.319 154.893 190.451C155 190.583 155.08 190.735 155.129 190.898C155.178 191.06 155.194 191.231 155.177 191.401C155.159 191.57 155.109 191.734 155.028 191.883C154.959 192.012 154.868 192.129 154.759 192.227Z" fill="#1F2A43"/>
<path d="M160.712 199.461L156.43 200.03C156.277 200.051 156.121 200.016 155.991 199.931C155.862 199.847 155.767 199.718 155.724 199.57C155.681 199.421 155.693 199.262 155.758 199.121C155.822 198.98 155.936 198.868 156.076 198.804L160.005 197.007C160.313 196.883 160.657 196.883 160.966 197.006C161.275 197.129 161.524 197.366 161.662 197.668C161.801 197.97 161.817 198.314 161.708 198.628C161.6 198.942 161.374 199.202 161.079 199.354C160.962 199.407 160.839 199.443 160.712 199.461Z" fill="#1F2A43"/>
<path d="M195.811 176.114L198.807 173.461C198.923 173.359 199.07 173.302 199.224 173.299C199.377 173.296 199.527 173.348 199.646 173.445C199.764 173.543 199.845 173.679 199.872 173.83C199.9 173.981 199.872 174.137 199.795 174.27L197.786 177.731C197.614 178.028 197.331 178.244 196.999 178.332C196.668 178.42 196.315 178.372 196.018 178.2C195.722 178.028 195.506 177.745 195.418 177.413C195.33 177.082 195.377 176.729 195.549 176.432C195.62 176.313 195.708 176.206 195.811 176.114Z" fill="#1F2A43"/>
<path d="M192.464 206.785L195.232 208.404C195.361 208.48 195.461 208.598 195.513 208.739C195.566 208.88 195.568 209.034 195.519 209.176C195.47 209.319 195.374 209.439 195.247 209.519C195.119 209.598 194.968 209.631 194.819 209.611L191.64 209.201C191.304 209.148 191.002 208.967 190.798 208.695C190.594 208.424 190.504 208.083 190.548 207.746C190.592 207.409 190.765 207.102 191.031 206.891C191.298 206.68 191.636 206.582 191.974 206.617C192.147 206.64 192.314 206.697 192.464 206.785Z" fill="#1F2A43"/>
<path d="M191.965 215.523L194.653 215.051C194.798 215.025 194.948 215.049 195.078 215.119C195.208 215.188 195.311 215.3 195.37 215.435C195.429 215.571 195.44 215.722 195.403 215.865C195.365 216.008 195.28 216.133 195.162 216.222L192.982 217.865C192.703 218.065 192.358 218.148 192.018 218.096C191.679 218.044 191.374 217.862 191.168 217.588C190.961 217.314 190.87 216.97 190.914 216.63C190.958 216.29 191.133 215.98 191.402 215.767C191.568 215.643 191.761 215.56 191.965 215.523Z" fill="#1F2A43"/>
<path d="M172.372 218.729C169.728 219.621 167.3 219.306 166.36 216.519C165.42 213.731 166.8 210.746 169.446 209.857C172.092 208.967 174.996 210.502 175.936 213.29C176.876 216.077 175.017 217.837 172.372 218.729Z" fill="#1F2A43"/>
<path d="M165.773 208.975C166.311 209.673 167.348 209.777 168.09 209.206C168.832 208.635 168.997 207.606 168.46 206.907C167.922 206.209 166.885 206.105 166.143 206.676C165.401 207.247 165.236 208.276 165.773 208.975Z" fill="#1F2A43"/>
<path d="M171.636 207.017C172.794 207.216 173.853 206.672 174.002 205.803C174.151 204.935 173.333 204.07 172.175 203.871C171.017 203.673 169.957 204.216 169.808 205.085C169.66 205.954 170.478 206.819 171.636 207.017Z" fill="#1F2A43"/>
<path d="M175.164 209.712C175.702 210.41 176.704 210.541 177.402 210.003C178.101 209.466 178.231 208.464 177.693 207.765C177.156 207.067 176.154 206.936 175.455 207.474C174.757 208.011 174.626 209.013 175.164 209.712Z" fill="#1F2A43"/>
<g opacity="0.3">
<path d="M211.691 174.847C195.379 185.509 184.377 170.229 195.323 158.986C195.449 158.857 195.573 158.724 195.695 158.591C193.334 178.588 211.299 167.557 218.521 152.665C219.769 150.094 220.693 147.407 221.144 144.75L222.284 146.852C223.412 148.935 223.86 151.319 223.565 153.669L223.207 156.521L223.106 157.324C221.89 163.301 217.689 169.66 213.008 173.756C212.577 174.143 212.132 174.507 211.691 174.847Z" fill="#1F2A43"/>
</g>
<g opacity="0.3">
<path d="M219.372 166.222C219.372 166.222 225.089 173.852 225.371 180.63C225.371 180.63 215.615 181.074 210.65 187.682L212.113 174.926L219.372 166.222Z" fill="#1F2A43"/>
</g>
<g opacity="0.3">
<path d="M236.837 232.548C197.568 260.513 164.78 243.158 161.113 216.905L161.728 215.766C164.852 223.171 170.658 228.076 177.935 230.715C178.692 230.984 179.523 230.953 180.258 230.629C180.993 230.304 181.576 229.711 181.888 228.97C183.548 225.055 183.778 220.234 183.142 214.846L189.327 212.605L189.972 212.76C189.628 209.529 191.09 206.273 194.539 204.595C187.019 215.832 212.764 218.935 221.101 208.119C222.182 206.717 223.466 205.48 224.997 204.591C226.205 203.889 227.686 203.198 229.232 202.868C232.516 202.167 236.099 203.098 238.008 209.047C238.04 209.157 238.088 209.262 238.152 209.358C239.217 211.121 241.699 211.368 243.079 209.84C251.487 200.525 257.284 188.672 258.11 174.742C258.114 174.746 258.118 174.751 258.121 174.756C259.879 181.243 260.371 188.008 259.57 194.681C257.77 209.942 249.348 223.634 236.837 232.548Z" fill="#1F2A43"/>
</g>
<g opacity="0.3">
<path d="M277.173 294.458C275.119 297.14 271.952 298.745 268.578 299.008C261.696 299.547 255.511 298.18 250.194 295.603C238.352 289.872 230.787 278.153 229.294 268.187C227.64 251.386 226.119 244.261 213.041 244.543L232.655 235.369C235.899 237.721 238.287 240.56 239.688 243.943L239.685 243.946C230.924 249.244 234.053 255.759 234.053 255.759C240.644 306.366 274.69 293.822 274.503 280.217C279.314 283.775 280.87 289.627 277.173 294.458Z" fill="#1F2A43"/>
</g>
</svg>
